<?xml version="1.0" encoding="UTF-8" standalone="no"?>
<!DOCTYPE svg PUBLIC "-//W3C//DTD SVG 1.1//EN" "http://www.w3.org/Graphics/SVG/1.1/DTD/svg11.dtd">
<svg width="100%" height="100%" viewBox="0 0 90 90" version="1.1" xmlns="http://www.w3.org/2000/svg" xmlns:xlink="http://www.w3.org/1999/xlink" xml:space="preserve" xmlns:serif="http://www.serif.com/" style="fill-rule:evenodd;clip-rule:evenodd;stroke-linejoin:round;stroke-miterlimit:2;">
    <path d="M15.03,58.68C20.016,58.68 20.016,63.486 25.02,63.486C30.024,63.486 30.006,58.68 35.01,58.68C40.014,58.68 39.996,63.486 44.982,63.486C49.968,63.486 49.986,58.68 54.972,58.68C59.958,58.68 59.976,63.486 64.98,63.486C69.984,63.486 69.966,58.68 74.97,58.68L74.97,48.258C74.97,47.241 74.566,46.266 73.847,45.547C73.128,44.828 72.153,44.424 71.136,44.424L18.72,44.424C17.741,44.424 16.802,44.813 16.11,45.505C15.418,46.197 15.03,47.135 15.03,48.114L15.03,58.68Z" />
    <path d="M27.001,32.832C28.807,32.851 30.547,32.153 31.839,30.891C33.132,29.629 33.871,27.906 33.895,26.1C33.895,23.094 29.808,15.984 28.494,13.878C28.335,13.609 28.109,13.387 27.837,13.232C27.566,13.078 27.259,12.996 26.947,12.996C26.634,12.996 26.327,13.078 26.056,13.232C25.784,13.387 25.558,13.609 25.398,13.878C24.139,15.984 19.999,23.094 19.999,26.1C20.01,27.003 20.201,27.896 20.561,28.725C20.92,29.554 21.44,30.304 22.092,30.93C22.743,31.556 23.513,32.047 24.355,32.373C25.198,32.7 26.097,32.856 27.001,32.832ZM27.001,18.432C28.471,20.805 29.581,23.383 30.295,26.082C30.295,26.955 29.948,27.793 29.33,28.411C28.712,29.029 27.874,29.376 27.001,29.376C26.127,29.376 25.289,29.029 24.671,28.411C24.054,27.793 23.706,26.955 23.706,26.082C24.422,23.389 25.532,20.817 27.001,18.45L27.001,18.432Z" />
    <path d="M45.001,32.832C46.807,32.851 48.547,32.153 49.839,30.891C51.132,29.629 51.871,27.906 51.895,26.1C51.895,23.094 47.809,15.984 46.495,13.878C46.335,13.609 46.109,13.387 45.837,13.232C45.566,13.078 45.259,12.996 44.947,12.996C44.634,12.996 44.327,13.078 44.056,13.232C43.784,13.387 43.558,13.609 43.399,13.878C42.139,15.984 37.999,23.094 37.999,26.1C38.01,27.003 38.201,27.896 38.561,28.725C38.92,29.554 39.44,30.304 40.092,30.93C40.743,31.556 41.513,32.047 42.355,32.373C43.198,32.7 44.097,32.856 45.001,32.832ZM45.001,18.432C46.471,20.805 47.581,23.383 48.295,26.082C48.295,26.955 47.948,27.793 47.33,28.411C46.712,29.029 45.874,29.376 45.001,29.376C44.127,29.376 43.289,29.029 42.671,28.411C42.054,27.793 41.707,26.955 41.707,26.082C42.422,23.389 43.532,20.817 45.001,18.45L45.001,18.432Z" />
    <path d="M63.001,32.832C64.807,32.851 66.547,32.153 67.839,30.891C69.132,29.629 69.871,27.906 69.894,26.1C69.894,23.094 65.809,15.984 64.495,13.878C64.335,13.609 64.109,13.387 63.837,13.232C63.566,13.078 63.259,12.996 62.947,12.996C62.634,12.996 62.327,13.078 62.056,13.232C61.784,13.387 61.558,13.609 61.399,13.878C60.139,15.984 55.999,23.094 55.999,26.1C56.01,27.003 56.201,27.896 56.561,28.725C56.92,29.554 57.44,30.304 58.092,30.93C58.743,31.556 59.513,32.047 60.355,32.373C61.198,32.7 62.097,32.856 63.001,32.832ZM63.001,18.432C64.471,20.805 65.581,23.383 66.295,26.082C66.295,26.955 65.948,27.793 65.33,28.411C64.712,29.029 63.874,29.376 63.001,29.376C62.127,29.376 61.289,29.029 60.671,28.411C60.054,27.793 59.707,26.955 59.707,26.082C60.422,23.389 61.532,20.817 63.001,18.45L63.001,18.432Z" />
    <path d="M83.934,73.386L76.734,73.386L76.734,48.186C76.734,46.692 76.14,45.259 75.084,44.202C74.027,43.145 72.594,42.552 71.1,42.552L64.8,42.552L64.8,35.838C64.8,35.361 64.61,34.903 64.272,34.565C63.935,34.228 63.477,34.038 63,34.038C62.522,34.038 62.064,34.228 61.727,34.565C61.389,34.903 61.2,35.361 61.2,35.838L61.2,42.624L46.8,42.624L46.8,35.838C46.8,35.361 46.61,34.903 46.272,34.565C45.935,34.228 45.477,34.038 45,34.038C44.522,34.038 44.064,34.228 43.727,34.565C43.389,34.903 43.2,35.361 43.2,35.838L43.2,42.624L28.8,42.624L28.8,35.838C28.8,35.361 28.61,34.903 28.272,34.565C27.935,34.228 27.477,34.038 27,34.038C26.522,34.038 26.064,34.228 25.727,34.565C25.389,34.903 25.2,35.361 25.2,35.838L25.2,42.624L18.72,42.624C17.265,42.629 15.871,43.209 14.843,44.237C13.814,45.266 13.234,46.659 13.23,48.114L13.23,73.314L6.03,73.314C5.552,73.314 5.094,73.504 4.757,73.841C4.419,74.179 4.23,74.636 4.23,75.114C4.23,75.591 4.419,76.049 4.757,76.387C5.094,76.724 5.552,76.914 6.03,76.914L83.934,76.914C84.411,76.914 84.869,76.724 85.206,76.387C85.544,76.049 85.734,75.591 85.734,75.114C85.734,74.636 85.544,74.179 85.206,73.841C84.869,73.504 84.411,73.314 83.934,73.314L83.934,73.386ZM16.83,48.186C16.817,47.934 16.857,47.683 16.947,47.448C17.038,47.212 17.176,46.999 17.355,46.821C17.533,46.643 17.746,46.504 17.981,46.413C18.217,46.323 18.468,46.283 18.72,46.296L71.136,46.296C71.674,46.301 72.188,46.516 72.569,46.897C72.949,47.277 73.165,47.792 73.17,48.33L73.17,58.122C71.708,58.558 70.39,59.378 69.354,60.498C68.83,61.159 68.165,61.695 67.409,62.069C66.653,62.442 65.823,62.644 64.98,62.658C64.135,62.647 63.304,62.448 62.548,62.074C61.791,61.7 61.127,61.162 60.606,60.498C59.92,59.671 59.06,59.006 58.088,58.549C57.116,58.092 56.055,57.855 54.981,57.855C53.906,57.855 52.846,58.092 51.873,58.549C50.901,59.006 50.041,59.671 49.356,60.498C48.827,61.144 48.163,61.666 47.41,62.027C46.658,62.388 45.834,62.579 45,62.586C44.158,62.57 43.331,62.37 42.575,62C41.819,61.63 41.154,61.099 40.626,60.444C39.938,59.62 39.08,58.955 38.11,58.495C37.141,58.035 36.083,57.791 35.01,57.78C33.939,57.796 32.885,58.04 31.916,58.497C30.948,58.953 30.088,59.611 29.394,60.426C28.874,61.087 28.213,61.624 27.46,61.998C26.706,62.372 25.879,62.573 25.038,62.586C24.196,62.572 23.368,62.374 22.611,62.003C21.855,61.633 21.19,61.101 20.664,60.444C19.631,59.316 18.312,58.489 16.848,58.05L16.83,48.186ZM16.83,73.386L16.83,59.886C17.804,60.3 18.681,60.913 19.404,61.686C20.078,62.527 20.933,63.205 21.905,63.672C22.877,64.138 23.942,64.38 25.02,64.38C26.098,64.38 27.162,64.138 28.134,63.672C29.106,63.205 29.961,62.527 30.636,61.686C31.148,61.014 31.808,60.47 32.566,60.095C33.323,59.721 34.156,59.526 35.001,59.526C35.845,59.526 36.679,59.721 37.436,60.095C38.193,60.47 38.853,61.014 39.366,61.686C40.04,62.527 40.895,63.205 41.867,63.672C42.839,64.138 43.904,64.38 44.982,64.38C46.06,64.38 47.124,64.138 48.096,63.672C49.068,63.205 49.923,62.527 50.598,61.686C51.125,61.029 51.79,60.495 52.545,60.122C53.301,59.749 54.129,59.545 54.972,59.526C55.829,59.539 56.672,59.744 57.438,60.128C58.205,60.511 58.875,61.062 59.4,61.74C60.085,62.567 60.945,63.232 61.917,63.689C62.89,64.146 63.95,64.382 65.025,64.382C66.099,64.382 67.16,64.146 68.132,63.689C69.104,63.232 69.964,62.567 70.65,61.74C71.373,60.967 72.249,60.353 73.224,59.94L73.224,73.44L16.83,73.386Z" />
</svg>
