<svg width="16" height="16" viewBox="0 0 16 16" fill="none" xmlns="http://www.w3.org/2000/svg">
<path id="Vector" d="M12.5779 0H3.42214C1.53096 0 0 1.5348 0 3.43072V12.5693C0 14.4652 1.53096 16 3.42214 16H12.5779C14.469 16 16 14.4652 16 12.5693V3.43072C16 1.5348 14.469 0 12.5779 0ZM10.9869 1.94608H12.9881V3.95235H10.9869V1.94608ZM7.97498 4.92539C9.08568 4.92539 9.99625 5.82821 9.99625 6.95172C9.99625 8.0652 9.09568 8.97806 7.97498 8.97806C6.86429 8.97806 5.95372 8.07524 5.95372 6.95172C5.95372 5.83824 6.85428 4.92539 7.97498 4.92539ZM14.0088 12.7398C14.0088 13.4219 13.4584 13.9737 12.778 13.9737H3.24203C2.5616 13.9737 2.01126 13.4219 2.01126 12.7398V6.90157H4.02251C4.02251 6.96176 4.0025 7.01191 4.0025 7.06207C4.0025 9.26897 5.78361 11.0545 7.98499 11.0545C10.1864 11.0545 11.9675 9.26897 11.9675 7.06207C11.9675 7.00188 11.9575 6.95172 11.9475 6.90157H14.0088V12.7398Z" fill="#06255B"/>
</svg>
