<svg width="16" height="16" viewBox="0 0 16 16" fill="none" xmlns="http://www.w3.org/2000/svg">
<path id="Vector" fill-rule="evenodd" clip-rule="evenodd" d="M12.572 15.9969H3.426C1.537 15.9969 0.00500488 14.4639 0.00500488 12.5749V3.46592C0.00500488 1.57792 1.537 0.0449219 3.426 0.0449219H12.572C14.463 0.0449219 15.993 1.57792 15.993 3.46592V12.5749C15.993 14.4639 14.463 15.9969 12.572 15.9969ZM2.998 12.9979H4.998V6.96692H2.998V12.9979ZM3.983 3.99792C3.352 3.99792 2.842 4.45292 2.842 5.01392C2.842 5.57492 3.352 6.02792 3.983 6.02792C4.612 6.02792 5.124 5.57492 5.124 5.01392C5.124 4.45292 4.612 3.99792 3.983 3.99792ZM11.999 9.31092C11.999 7.52892 11.624 6.59092 9.936 6.59092C8.94 6.59092 8.3 7.20992 7.936 7.71892V6.90392H6.061V12.9669H7.936V9.02192C7.99 8.44092 8.211 7.96592 8.999 7.96592C10.31 7.96592 9.998 9.12192 9.998 9.12192V12.9359H11.999C11.999 12.9359 11.999 10.2799 11.999 9.31092Z" fill="#06255B"/>
</svg>
