<?xml version="1.0" encoding="UTF-8" standalone="no"?>
<!DOCTYPE svg PUBLIC "-//W3C//DTD SVG 1.1//EN" "http://www.w3.org/Graphics/SVG/1.1/DTD/svg11.dtd">
<svg width="100%" height="100%" viewBox="0 0 90 90" version="1.1" xmlns="http://www.w3.org/2000/svg" xmlns:xlink="http://www.w3.org/1999/xlink" xml:space="preserve" xmlns:serif="http://www.serif.com/" style="fill-rule:evenodd;clip-rule:evenodd;stroke-linejoin:round;stroke-miterlimit:2;">
    <g>
        <path d="M28.188,27.144C31.911,26.601 35.543,25.56 38.988,24.048C39.623,25.081 40.518,25.931 41.582,26.513C42.647,27.095 43.845,27.388 45.058,27.364C46.271,27.341 47.457,27.001 48.498,26.378C49.539,25.755 50.399,24.872 50.994,23.814C54.44,25.312 58.073,26.336 61.794,26.856C66.42,26.856 66.6,23.94 66.6,20.34C66.6,16.74 66.438,13.842 61.83,13.842C58.109,14.362 54.476,15.386 51.03,16.884C50.415,15.786 49.512,14.875 48.42,14.249C47.327,13.624 46.084,13.307 44.825,13.333C43.567,13.359 42.338,13.726 41.272,14.396C40.206,15.066 39.342,16.013 38.772,17.136C35.387,15.652 31.813,14.641 28.152,14.13C23.562,14.13 23.4,17.046 23.4,20.646C23.4,24.246 23.562,27.144 28.188,27.144Z"/>
        <path d="M60.948,43.866C60.84,43.823 60.724,43.801 60.606,43.803C60.49,43.805 60.374,43.83 60.267,43.877C60.16,43.924 60.063,43.991 59.982,44.076C59.901,44.161 59.838,44.261 59.796,44.37C59.022,46.332 57.708,47.556 56.358,47.556C55.008,47.556 53.694,46.332 52.938,44.37C52.847,44.151 52.673,43.976 52.455,43.882C52.237,43.788 51.991,43.782 51.768,43.866C51.658,43.91 51.558,43.975 51.473,44.057C51.388,44.14 51.321,44.238 51.274,44.347C51.227,44.455 51.202,44.572 51.2,44.69C51.199,44.809 51.221,44.926 51.264,45.036C51.571,46.19 52.224,47.222 53.134,47.995C54.045,48.767 55.17,49.242 56.358,49.356C57.553,49.238 58.683,48.757 59.597,47.979C60.51,47.2 61.164,46.161 61.47,45C61.547,44.78 61.535,44.539 61.438,44.328C61.341,44.116 61.165,43.951 60.948,43.866Z"/>
        <path d="M38.232,43.866C38.01,43.782 37.764,43.788 37.546,43.882C37.328,43.976 37.154,44.151 37.062,44.37C36.306,46.332 34.992,47.556 33.642,47.556C32.292,47.556 30.978,46.332 30.204,44.37C30.116,44.148 29.943,43.97 29.724,43.876C29.504,43.781 29.256,43.778 29.034,43.866C28.812,43.954 28.635,44.127 28.54,44.347C28.446,44.566 28.442,44.814 28.53,45.036C28.843,46.19 29.499,47.221 30.413,47.993C31.326,48.765 32.452,49.24 33.642,49.356C34.836,49.239 35.964,48.759 36.875,47.98C37.786,47.201 38.436,46.16 38.736,45C38.814,44.782 38.805,44.543 38.711,44.332C38.617,44.121 38.446,43.954 38.232,43.866Z"/>
        <path d="M73.512,34.956C72.273,31.308 70.342,27.935 67.824,25.02C68.28,23.504 68.474,21.921 68.4,20.34C68.4,17.244 68.4,12.042 61.83,12.042C58.356,12.451 54.956,13.348 51.732,14.706C50.9,13.696 49.852,12.887 48.664,12.339C47.476,11.791 46.18,11.518 44.872,11.54C43.564,11.563 42.278,11.88 41.109,12.469C39.941,13.057 38.921,13.902 38.124,14.94C34.958,13.606 31.619,12.727 28.206,12.33C21.6,12.33 21.6,17.532 21.6,20.646C21.544,22.113 21.702,23.58 22.068,25.002C19.546,27.927 17.615,31.314 16.38,34.974C10.98,35.586 6.678,39.636 6.678,44.55C6.678,49.464 10.944,53.55 16.416,54.144C18.022,58.844 20.757,63.079 24.382,66.475C28.007,69.87 32.411,72.324 37.206,73.62C37.923,75.078 39.033,76.307 40.413,77.166C41.792,78.025 43.384,78.48 45.009,78.48C46.634,78.48 48.226,78.025 49.606,77.166C50.985,76.307 52.096,75.078 52.812,73.62C57.601,72.32 61.998,69.865 65.617,66.469C69.236,63.073 71.965,58.841 73.566,54.144C78.966,53.55 83.304,49.482 83.304,44.55C83.304,39.618 79.02,35.532 73.512,34.956ZM61.812,15.642C64.386,15.642 64.8,16.2 64.8,20.34C64.8,24.48 64.404,25.056 61.83,25.056C58.945,24.672 56.124,23.903 53.442,22.77C53.695,21.984 53.828,21.165 53.838,20.34C53.814,19.544 53.674,18.756 53.424,18C56.104,16.849 58.925,16.056 61.812,15.642ZM45,15.138C46.033,15.138 47.043,15.444 47.902,16.019C48.761,16.593 49.43,17.41 49.825,18.364C50.219,19.319 50.321,20.37 50.118,21.383C49.916,22.396 49.417,23.326 48.685,24.055C47.953,24.785 47.021,25.28 46.007,25.48C44.994,25.679 43.944,25.573 42.99,25.175C42.036,24.777 41.222,24.106 40.651,23.245C40.08,22.384 39.777,21.373 39.78,20.34C39.785,18.959 40.337,17.635 41.315,16.66C42.294,15.685 43.619,15.138 45,15.138ZM28.188,15.93C31.04,16.316 33.83,17.072 36.486,18.18C36.294,18.884 36.191,19.61 36.18,20.34C36.197,21.258 36.355,22.169 36.648,23.04C33.942,24.177 31.097,24.951 28.188,25.344C25.614,25.344 25.218,24.732 25.218,20.646C25.218,16.56 25.614,15.93 28.188,15.93ZM45,76.662C43.622,76.662 42.276,76.253 41.13,75.488C39.984,74.722 39.092,73.634 38.564,72.362C38.037,71.089 37.899,69.688 38.168,68.337C38.437,66.986 39.1,65.744 40.074,64.77C41.049,63.796 42.29,63.132 43.641,62.864C44.992,62.595 46.393,62.733 47.666,63.26C48.939,63.787 50.027,64.68 50.792,65.826C51.558,66.971 51.966,68.318 51.966,69.696C51.966,71.543 51.232,73.315 49.926,74.622C48.619,75.928 46.848,76.662 45,76.662ZM52.524,65.268C51.757,63.953 50.658,62.862 49.338,62.105C48.018,61.347 46.522,60.948 45,60.948C43.478,60.948 41.982,61.347 40.662,62.105C39.342,62.862 38.244,63.953 37.476,65.268C37.179,64.825 37.011,64.307 36.99,63.774C36.99,61.29 40.59,59.184 45,59.184C49.41,59.184 53.01,61.29 53.01,63.774C52.996,64.308 52.827,64.827 52.524,65.268ZM72.198,50.616C71.775,50.608 71.362,50.75 71.032,51.017C70.703,51.283 70.479,51.658 70.398,52.074C69.191,56.101 67.048,59.785 64.145,62.826C61.242,65.866 57.661,68.177 53.694,69.57C53.668,68.745 53.529,67.927 53.28,67.14C54.188,66.258 54.717,65.057 54.756,63.792C54.739,63.166 54.585,62.552 54.306,61.992C55.748,61.204 57.035,60.161 58.104,58.914C58.253,58.73 58.324,58.494 58.3,58.258C58.277,58.022 58.161,57.805 57.978,57.654C57.888,57.578 57.783,57.52 57.67,57.485C57.558,57.45 57.439,57.438 57.321,57.45C57.204,57.462 57.09,57.497 56.986,57.554C56.883,57.61 56.792,57.687 56.718,57.78C55.756,58.877 54.603,59.792 53.316,60.48C52.203,59.442 50.894,58.636 49.467,58.107C48.039,57.579 46.521,57.339 45,57.402C43.472,57.329 41.944,57.563 40.507,58.088C39.07,58.614 37.752,59.421 36.63,60.462C35.343,59.774 34.191,58.859 33.228,57.762C33.155,57.669 33.064,57.592 32.96,57.536C32.856,57.479 32.742,57.444 32.625,57.432C32.507,57.42 32.389,57.432 32.276,57.467C32.163,57.502 32.058,57.56 31.968,57.636C31.785,57.787 31.67,58.004 31.646,58.24C31.622,58.476 31.693,58.712 31.842,58.896C32.912,60.143 34.199,61.186 35.64,61.974C35.361,62.534 35.207,63.148 35.19,63.774C35.229,65.039 35.758,66.24 36.666,67.122C36.417,67.909 36.278,68.727 36.252,69.552C32.284,68.159 28.7,65.848 25.794,62.808C22.888,59.767 20.742,56.083 19.53,52.056C19.45,51.64 19.225,51.266 18.896,50.999C18.567,50.732 18.154,50.59 17.73,50.598C13.59,50.598 10.224,47.88 10.224,44.532C10.224,41.184 13.59,38.466 17.73,38.466C18.172,38.469 18.6,38.309 18.932,38.017C19.264,37.725 19.477,37.321 19.53,36.882C20.516,33.644 22.124,30.63 24.264,28.008C25.449,28.67 26.796,28.988 28.152,28.926C31.69,28.505 35.151,27.584 38.43,26.19C39.263,27.136 40.292,27.889 41.445,28.398C42.598,28.907 43.848,29.159 45.108,29.137C46.368,29.114 47.609,28.818 48.743,28.269C49.878,27.72 50.879,26.93 51.678,25.956C54.899,27.326 58.3,28.229 61.776,28.638C63.025,28.673 64.263,28.395 65.376,27.828C67.658,30.569 69.355,33.748 70.362,37.17C70.416,37.317 70.488,37.456 70.578,37.584C70.573,37.632 70.573,37.68 70.578,37.728C70.665,37.833 70.761,37.929 70.866,38.016L71.064,38.16L71.37,38.322C71.532,38.378 71.703,38.408 71.874,38.412L71.982,38.412C76.122,38.412 79.488,41.148 79.488,44.478C79.488,47.808 76.338,50.616 72.198,50.616Z"/>
    </g>
</svg>
