<svg width="130" height="130" viewBox="0 0 130 130" fill="none" xmlns="http://www.w3.org/2000/svg">
<g clip-path="url(#clip0)">
<path d="M34.9888 21.7038C34.4885 22.031 33.9689 22.3517 33.4364 22.6533C32.904 22.9548 32.4164 23.1857 31.9674 23.3333L25.918 14.1341C26.0912 13.9673 26.2836 13.7877 26.4953 13.608C26.7006 13.4284 26.9187 13.2488 27.1432 13.0756C27.3678 12.9024 27.5923 12.7356 27.8232 12.5688C28.0478 12.4084 28.2659 12.2545 28.4776 12.1197C29.0485 11.7413 29.613 11.4333 30.1647 11.196C30.7164 10.9586 31.236 10.8239 31.7236 10.7854C32.2175 10.7469 32.673 10.8303 33.0836 11.0228C33.5006 11.2216 33.8662 11.5616 34.187 12.0428C34.4821 12.4918 34.6232 12.9409 34.6232 13.4028C34.6232 13.8646 34.4885 14.3137 34.2319 14.7563C34.9311 14.5703 35.5405 14.5703 36.0602 14.7692C36.5798 14.9616 37.0288 15.3465 37.4073 15.9239C38.0488 16.899 38.1771 17.8676 37.7858 18.8171C37.3881 19.7793 36.4579 20.7416 34.9888 21.7038ZM30.0557 16.7386L31.2745 15.9367C31.9289 15.5069 32.3843 15.0707 32.6345 14.6409C32.8847 14.211 32.8526 13.7492 32.5319 13.268C32.2304 12.8126 31.8262 12.6137 31.313 12.6779C30.7998 12.742 30.2353 12.9794 29.613 13.3835C29.35 13.5567 29.1191 13.7171 28.9202 13.8582C28.7213 14.0058 28.5546 14.1341 28.4198 14.2431L30.0557 16.7386ZM30.9474 18.0922L32.8462 20.9789C33.0515 20.8699 33.2632 20.748 33.4877 20.6133C33.7123 20.4786 33.9175 20.3503 34.0972 20.2284C34.45 19.991 34.7707 19.7537 35.0466 19.5099C35.3224 19.2661 35.5341 19.0095 35.6817 18.7465C35.8292 18.4835 35.9062 18.214 35.9126 17.9382C35.919 17.6623 35.8228 17.3737 35.6239 17.0722C35.2711 16.5333 34.8285 16.2895 34.296 16.3408C33.7636 16.3858 33.1541 16.6424 32.4613 17.0978L30.9474 18.0922Z" fill="#DF6954"/>
<path d="M38.5738 14.3829C38.2788 13.6901 38.1184 13.0422 38.0991 12.4328C38.0799 11.8233 38.1633 11.2716 38.3557 10.7777C38.5482 10.2837 38.824 9.85391 39.1897 9.48825C39.5554 9.12259 39.9659 8.84033 40.4278 8.64146C41.5119 8.17316 42.4999 8.1475 43.3916 8.55806C44.2897 8.96863 45.021 9.84108 45.5983 11.169C45.6432 11.2716 45.6881 11.3807 45.733 11.509C45.7844 11.6373 45.8229 11.7528 45.8549 11.8554L40.6716 14.0878C40.9923 14.6973 41.4285 15.0886 41.9738 15.2618C42.5191 15.435 43.167 15.3644 43.9176 15.0373C44.3602 14.8448 44.7451 14.6331 45.0723 14.3958C45.4059 14.1584 45.6561 13.9467 45.8293 13.7671L46.7146 15.1527C46.6376 15.249 46.5221 15.358 46.3681 15.4863C46.2142 15.6146 46.041 15.7558 45.8293 15.8969C45.624 16.038 45.3995 16.1791 45.1493 16.3267C44.8991 16.4678 44.6425 16.5961 44.3731 16.718C43.6802 17.0131 43.0387 17.1735 42.4357 17.1863C41.8327 17.1991 41.2938 17.0965 40.8063 16.872C40.3187 16.6474 39.8889 16.3267 39.5105 15.8969C39.1384 15.4863 38.824 14.9731 38.5738 14.3829ZM43.4942 11.2973C43.3851 11.0471 43.2504 10.8226 43.0836 10.6301C42.9168 10.4377 42.7308 10.2837 42.5255 10.1747C42.3202 10.0656 42.0957 10.0079 41.8584 9.99504C41.621 9.98221 41.3708 10.0399 41.095 10.1554C40.8127 10.2773 40.5946 10.4377 40.4278 10.6301C40.261 10.829 40.1455 11.0407 40.075 11.2716C40.0044 11.5026 39.9723 11.7463 39.9916 12.0029C40.0044 12.2596 40.0493 12.5097 40.1199 12.7535L43.4942 11.2973Z" fill="#DF6954"/>
<path d="M51.9591 14.1015C51.3882 14.2554 50.907 14.3324 50.4965 14.326C50.0923 14.3196 49.7459 14.2426 49.4637 14.0886C49.1814 13.9411 48.9505 13.7166 48.7644 13.4215C48.5848 13.1264 48.4308 12.78 48.3089 12.3694L45.5441 2.91364L47.3531 2.04761L50.0987 11.4585C50.1629 11.6894 50.2399 11.8755 50.3233 12.023C50.4067 12.1706 50.5093 12.286 50.6376 12.363C50.7659 12.4464 50.9199 12.4913 51.0931 12.5041C51.2727 12.517 51.4908 12.4977 51.7538 12.4592L51.9591 14.1015Z" fill="#DF6954"/>
<path d="M60.228 11.5221C60.4461 12.8692 60.2601 13.9085 59.6763 14.6462C59.0926 15.3839 58.0982 15.8651 56.6869 16.0896C56.1673 16.173 55.6605 16.2115 55.1537 16.2051C54.6469 16.1987 54.185 16.1537 53.7681 16.0832L53.8515 14.364C54.2107 14.4473 54.6084 14.4987 55.0447 14.5179C55.4809 14.5372 55.9492 14.5051 56.4496 14.4217C57.2386 14.2934 57.7711 14.0432 58.0533 13.6647C58.3356 13.2862 58.4254 12.7794 58.3228 12.1443L58.2714 11.8236C58.0918 11.9519 57.8545 12.093 57.5529 12.2406C57.2514 12.3881 56.8922 12.4972 56.488 12.5613C55.9492 12.6511 55.4424 12.6383 54.9677 12.5421C54.493 12.4459 54.0696 12.2534 53.6975 11.9647C53.3254 11.6825 53.0111 11.304 52.7545 10.8293C52.4979 10.3545 52.3118 9.79002 52.2092 9.13569C52.113 8.51984 52.113 7.94249 52.2156 7.39079C52.3183 6.84552 52.5235 6.35797 52.8251 5.93458C53.1266 5.51119 53.5179 5.15194 54.0054 4.86327C54.4865 4.57459 55.0575 4.37572 55.7182 4.27308C56.3533 4.17044 56.9628 4.11912 57.5529 4.12554C58.1367 4.13195 58.6435 4.15761 59.0541 4.1961L60.228 11.5221ZM54.2043 8.80852C54.339 9.63606 54.6149 10.2134 55.0382 10.5406C55.4616 10.8678 55.9556 10.9832 56.5265 10.887C56.8409 10.8357 57.1231 10.7459 57.3862 10.6176C57.6492 10.4893 57.8544 10.3481 58.0084 10.2006L57.3028 5.81911C57.1552 5.80628 56.982 5.80628 56.7703 5.81269C56.5586 5.81911 56.302 5.84477 55.9877 5.89609C55.2756 6.01156 54.7688 6.33231 54.4673 6.86476C54.1658 7.39721 54.076 8.04513 54.2043 8.80852Z" fill="#DF6954"/>
<path d="M64.336 1.17509C64.3488 1.54716 64.2397 1.84225 64.0088 2.07319C63.7779 2.29772 63.4956 2.41961 63.1684 2.43244C62.8284 2.44527 62.5397 2.34904 62.2896 2.13734C62.0394 1.92565 61.9111 1.63697 61.8982 1.27131C61.8854 0.886407 61.9945 0.584901 62.2254 0.360374C62.4563 0.135848 62.7386 0.0139609 63.0786 0.00113077C63.4058 -0.0116993 63.6945 0.0845258 63.9446 0.296222C64.1884 0.495089 64.3231 0.790183 64.336 1.17509ZM64.5477 12.2346L62.5718 12.3116L62.2446 3.76035L64.2205 3.68337L64.5477 12.2346Z" fill="#DF6954"/>
<path d="M66.6002 7.82701C66.658 7.15343 66.8119 6.55042 67.0557 6.01797C67.3059 5.48552 67.6331 5.04288 68.0372 4.69005C68.4478 4.33722 68.9225 4.07421 69.4742 3.90741C70.0259 3.74062 70.6353 3.68289 71.3089 3.74062C71.9824 3.79836 72.6111 3.901 73.1885 4.04855C73.7658 4.19609 74.2406 4.34364 74.6126 4.47835L73.6568 15.7432L71.6809 15.5764L71.9632 12.2662C71.7259 12.3689 71.4372 12.4523 71.0972 12.5228C70.7572 12.5934 70.3851 12.6126 69.9874 12.5741C69.3779 12.5228 68.8519 12.3689 68.4029 12.1187C67.9538 11.8685 67.5881 11.5349 67.3059 11.1115C67.0236 10.6945 66.8183 10.207 66.6964 9.64888C66.5746 9.1036 66.5425 8.49418 66.6002 7.82701ZM68.621 8.03229C68.5504 8.85983 68.6595 9.527 68.9481 10.0466C69.2368 10.5662 69.7436 10.8549 70.4621 10.9126C70.7893 10.9383 71.0972 10.9126 71.3987 10.8357C71.6938 10.7587 71.9376 10.6625 72.1172 10.5598L72.5341 5.68438C72.393 5.63948 72.2198 5.59457 72.0145 5.54967C71.8028 5.50476 71.5334 5.46627 71.1934 5.44061C70.4621 5.37646 69.8719 5.57533 69.4164 6.03721C68.9545 6.49909 68.6915 7.16626 68.621 8.03229Z" fill="#DF6954"/>
<path d="M82.8322 14.5954C82.4409 14.5954 81.9341 14.5698 81.3119 14.5184C80.696 14.4671 80.0289 14.3452 79.3232 14.1656C78.656 13.9924 78.1236 13.755 77.7259 13.4471C77.3281 13.1392 77.033 12.7864 76.8534 12.3758C76.6738 11.9717 76.584 11.5162 76.5904 11.0158C76.5968 10.5154 76.6674 9.983 76.8149 9.42489L78.0145 4.7804L79.9326 5.27435L78.81 9.61734C78.5791 10.5026 78.547 11.1698 78.7074 11.6188C78.8677 12.0679 79.2719 12.3694 79.9134 12.5362C80.1443 12.5939 80.3945 12.6517 80.6575 12.6966C80.9206 12.7415 81.1194 12.7671 81.2541 12.7671L82.9798 6.06341L84.8979 6.55736L82.8322 14.5954Z" fill="#DF6954"/>
<path d="M85.9893 11.4641C86.2908 10.7777 86.6629 10.2196 87.0991 9.78981C87.5354 9.36001 87.9972 9.05208 88.4912 8.85322C88.9852 8.66076 89.4855 8.57095 90.0052 8.5902C90.5184 8.60944 91.0059 8.7185 91.4678 8.92378C92.5455 9.39849 93.2383 10.1041 93.5463 11.0407C93.8542 11.9773 93.7131 13.1064 93.1293 14.4343C93.0844 14.537 93.0331 14.646 92.9753 14.7679C92.9176 14.8898 92.8598 14.9988 92.8021 15.0951L87.638 12.8113C87.4071 13.4592 87.4135 14.0494 87.6573 14.5626C87.901 15.0822 88.395 15.5056 89.1455 15.8392C89.5818 16.0317 90.0052 16.1728 90.4029 16.2562C90.8006 16.3396 91.1278 16.3781 91.378 16.3845L90.961 17.9754C90.8391 17.9818 90.6787 17.9754 90.4799 17.9498C90.281 17.9305 90.0565 17.892 89.8127 17.8343C89.5689 17.7766 89.3123 17.7124 89.0365 17.6226C88.7606 17.5392 88.4912 17.4366 88.2218 17.3147C87.5354 17.0067 86.9773 16.6411 86.5603 16.2113C86.1433 15.7815 85.8482 15.3132 85.6814 14.8C85.5146 14.2868 85.4569 13.7543 85.521 13.1898C85.566 12.6253 85.7263 12.0479 85.9893 11.4641ZM91.6025 12.9781C91.7116 12.7279 91.7821 12.4777 91.8142 12.2211C91.8463 11.9645 91.827 11.7272 91.7629 11.5026C91.6987 11.2781 91.5961 11.0728 91.4421 10.8932C91.2882 10.7136 91.0765 10.5596 90.807 10.4441C90.5312 10.3223 90.2618 10.2645 90.0052 10.2774C89.7486 10.2902 89.5112 10.3479 89.2931 10.4506C89.075 10.5532 88.8761 10.7008 88.6965 10.8868C88.5169 11.0728 88.3629 11.2717 88.2346 11.4898L91.6025 12.9781Z" fill="#DF6954"/>
<path d="M101.288 14.0762C101.949 14.2494 102.648 14.3648 103.399 14.4226C104.143 14.4803 104.874 14.4418 105.586 14.3007L106.709 15.1218L100.018 24.2761L98.4207 23.1086L103.546 16.0905C103.174 16.1033 102.744 16.0648 102.25 15.975C101.763 15.8852 101.307 15.7762 100.89 15.6479L101.288 14.0762Z" fill="#DF6954"/>
<path d="M109.694 26.969C109.424 26.8664 109.155 26.7189 108.892 26.5392C108.622 26.3596 108.391 26.1607 108.186 25.9491C107.718 25.4615 107.378 24.9868 107.179 24.5185C106.98 24.0502 106.89 23.6011 106.916 23.1585C106.941 22.7159 107.057 22.2989 107.262 21.9012C107.468 21.5034 107.75 21.1314 108.103 20.7914C108.411 20.4963 108.77 20.2461 109.187 20.0408C109.604 19.8355 110.053 19.7136 110.528 19.6751C111.009 19.6367 111.496 19.7072 111.99 19.8804C112.484 20.0536 112.959 20.3744 113.401 20.8363C114.325 21.7921 114.717 22.8185 114.575 23.9027C114.434 24.9868 113.799 26.0709 112.677 27.1551C111.092 28.6883 109.495 29.4388 107.891 29.4068C106.287 29.3811 104.664 28.5215 103.028 26.8407L104.157 25.6347C104.613 26.103 105.062 26.4943 105.511 26.7958C105.96 27.1038 106.403 27.3155 106.852 27.4309C107.301 27.5528 107.763 27.5721 108.225 27.5015C108.699 27.4438 109.187 27.2641 109.694 26.969ZM109.469 25.0253C109.687 25.2498 109.924 25.4551 110.181 25.6347C110.438 25.8143 110.681 25.9362 110.919 26.0132C111.015 25.9362 111.092 25.8721 111.156 25.8079C111.22 25.7502 111.272 25.6925 111.323 25.6475C111.637 25.346 111.913 25.0381 112.151 24.7238C112.388 24.4094 112.561 24.1015 112.664 23.7936C112.773 23.4857 112.792 23.1842 112.741 22.8827C112.683 22.5812 112.523 22.2925 112.26 22.0166C112.041 21.7921 111.804 21.6381 111.554 21.5676C111.304 21.497 111.054 21.4842 110.81 21.5227C110.56 21.5676 110.329 21.6446 110.111 21.7664C109.892 21.8883 109.7 22.023 109.533 22.1834C109.052 22.6453 108.808 23.1072 108.783 23.5755C108.763 24.0502 108.994 24.5313 109.469 25.0253Z" fill="#DF6954"/>
<path d="M116.381 28.1692C116.946 28.5477 117.574 28.8877 118.261 29.1892C118.947 29.4907 119.653 29.6896 120.371 29.7922L121.16 30.9341L111.839 37.3876L110.71 35.7582L117.857 30.8122C117.504 30.7031 117.106 30.5235 116.67 30.2797C116.234 30.036 115.842 29.7858 115.49 29.5228L116.381 28.1692Z" fill="#DF6954"/>
<path d="M114.674 42.9367C114.545 42.6737 114.436 42.3914 114.334 42.0899C114.238 41.7948 114.154 41.5061 114.09 41.2303C114.026 40.9545 113.974 40.6979 113.942 40.4605C113.91 40.2231 113.891 40.0371 113.904 39.9024L115.597 39.5367C115.597 39.7933 115.63 40.1462 115.694 40.5952C115.758 41.0507 115.931 41.5639 116.207 42.1477C116.579 42.9239 116.996 43.4178 117.458 43.6167C117.92 43.8156 118.407 43.8027 118.908 43.559C119.235 43.405 119.472 43.2125 119.626 42.9752C119.78 42.7378 119.87 42.4748 119.889 42.1797C119.915 41.8846 119.876 41.5767 119.787 41.2495C119.697 40.9224 119.575 40.5952 119.414 40.2552L119.126 39.6522L120.576 38.9658L120.928 39.7035C121.037 39.928 121.166 40.1462 121.32 40.3579C121.474 40.5696 121.653 40.7428 121.852 40.8711C122.057 41.0058 122.276 41.0828 122.519 41.1148C122.763 41.1469 123.033 41.0892 123.328 40.948C123.565 40.8326 123.745 40.6979 123.873 40.5246C123.995 40.3579 124.078 40.1782 124.123 39.9794C124.162 39.7869 124.162 39.5816 124.123 39.3699C124.085 39.1582 124.014 38.953 123.918 38.7413C123.706 38.2986 123.456 37.933 123.154 37.6507C122.859 37.3684 122.564 37.1375 122.269 36.9515L123.289 35.6685C123.443 35.7647 123.616 35.8866 123.809 36.0405C124.001 36.1881 124.2 36.3677 124.399 36.5666C124.604 36.7654 124.797 36.99 124.983 37.2401C125.169 37.4903 125.336 37.7662 125.477 38.0741C125.746 38.645 125.913 39.1711 125.971 39.6522C126.028 40.1333 125.996 40.5631 125.874 40.9545C125.753 41.3458 125.554 41.6858 125.278 41.9809C125.002 42.276 124.662 42.5197 124.258 42.7122C123.783 42.9367 123.302 43.0073 122.802 42.9239C122.301 42.8405 121.859 42.6416 121.461 42.3209C121.525 42.9431 121.429 43.5333 121.159 44.085C120.89 44.6431 120.415 45.0793 119.742 45.4065C119.286 45.6246 118.831 45.7401 118.369 45.7722C117.907 45.7978 117.458 45.7208 117.022 45.5284C116.585 45.3359 116.168 45.028 115.771 44.611C115.36 44.1812 115.001 43.6295 114.674 42.9367Z" fill="#DF6954"/>
<path d="M66.7055 126.705C33.1292 127.321 5.40333 100.602 4.78749 67.0261C4.70409 62.5035 5.1339 58.0964 5.99352 53.8368C4.60145 59.1292 3.88297 64.6911 3.99202 70.4389C4.60787 103.945 32.2696 130.606 65.7754 129.99C93.1484 129.483 115.947 110.931 123.042 85.8864C114.908 109.256 92.8918 126.231 66.7055 126.705Z" fill="#DF6954"/>
<path d="M63.7094 23.3393C85.636 24.077 103.746 38.8124 109.558 58.5579C104.932 38.1388 87.0152 22.5823 65.1078 21.851C54.4524 21.4918 44.5091 24.6993 36.4133 30.3894C44.3552 25.6166 53.734 22.9993 63.7094 23.3393Z" fill="#DF6954"/>
<path d="M71.4432 88.1697C68.3704 98.2477 74.1567 100.993 74.1567 100.993C83.6702 103.668 86.1657 111.745 86.1657 111.745C96.8468 111.745 95.9679 105.657 95.9679 105.657C91.8494 99.2421 92.7989 98.6391 94.903 88.7663C97.0071 78.8936 105.263 83.429 105.263 83.429C109.953 78.7332 105.584 66.7627 98.4633 65.1397C93.1068 63.9208 89.5079 61.419 89.0781 53.6503C88.7574 47.8255 88.7574 43.6172 86.4865 42.8089C84.2219 42.0006 83.4393 44.4383 78.0699 40.2172C72.7005 36.0025 71.7575 39.7297 66.9013 37.4652C62.0451 35.2006 63.9889 34.7131 54.9244 42.3214C45.8599 49.9296 34.8004 40.9036 34.8004 40.9036C24.3888 42.3983 15.2088 52.9896 15.2088 52.9896C14.1696 63.1767 20.1292 66.9167 20.1292 66.9167C20.1292 66.9167 23.0095 63.5038 28.6997 63.8823C37.02 64.434 40.4649 80.1316 40.4649 80.1316C40.4649 80.1316 45.1607 76.7317 51.1459 79.8109C57.1312 82.8837 52.198 86.7584 53.4682 91.8391C54.4369 95.7202 59.2995 96.9904 61.0764 96.8557C61.0829 96.8621 62.7059 89.8312 71.4432 88.1697Z" fill="#DF6954"/>
</g>
<defs>
<clipPath id="clip0">
<rect width="130" height="130" fill="white"/>
</clipPath>
</defs>
</svg>
