<svg width="130" height="130" viewBox="0 0 130 130" fill="none" xmlns="http://www.w3.org/2000/svg">
<path d="M68.6725 90.0717C79.9239 81.4558 88.4236 71.5374 92.3678 62.4017C92.8325 73.1578 90.0196 80.8993 81.685 90.09C75.5762 96.8226 65.083 101.36 58.4422 103.885C53.2262 105.469 43.5218 108.416 34.4962 104.154C34.3433 104.099 34.1905 104.05 34.0376 103.995C44.0844 103.353 57.0602 98.9567 68.6725 90.0717ZM65.5233 123.685C49.7774 123.973 35.3829 117.98 24.7123 108.019C27.7698 108.251 31.0474 108.374 34.0559 109.034C38.2813 109.957 43.0326 110.398 48.0163 110.165C65.7985 109.34 86.2039 96.0826 94.7342 79.3889C100.452 68.1987 99.1431 54.8498 94.0922 46.3501C93.3889 43.5678 94.9116 41.6355 96.3914 40.4247C100.984 45.549 104.463 51.6578 106.438 58.3781C104.867 51.4377 101.681 45.0904 97.3025 39.746C97.8467 39.3791 98.3115 39.1283 98.5377 38.9755C100.904 37.4284 98.7701 33.7411 95.7371 33.1847C94.2573 32.9095 92.8508 33.2458 91.4994 33.8512C84.0087 27.5161 74.4144 23.5537 63.8478 23.199C53.642 22.8566 44.1089 25.9263 36.3551 31.3808C43.9621 26.819 52.9449 24.3119 62.5086 24.6299C72.9468 24.9784 82.4799 28.6474 90.1175 34.5666C89.1941 35.0986 88.283 35.7101 87.3963 36.2971C89.084 35.6184 92.1232 34.1569 93.2972 34.3648C97.8895 35.1903 91.3771 38.2233 91.2548 41.8617C86.5953 36.3644 78.5236 35.1598 69.0577 37.4345C76.4323 36.3338 82.5778 38.1805 86.3812 43.4883C94.1472 54.3178 84.4795 72.0144 66.679 85.6384C60.8393 90.1084 54.5898 93.2576 48.6522 95.2143C42.1765 97.3423 35.9516 98.1128 30.6499 98.3391C25.9965 98.5347 21.3369 99.5681 19.7348 97.2323C18.0838 94.8291 20.9394 89.8699 21.606 84.8862C22.9879 74.5398 32.2276 60.9341 42.2927 50.869C41.9197 51.1442 41.5467 51.4254 41.1737 51.7128C39.8896 52.6973 38.6543 53.7124 37.4681 54.752C37.4681 54.7458 37.4681 54.7397 37.4681 54.7336C25.4094 65.8261 19.3496 78.6368 16.3288 88.1883C16.2248 88.5368 16.1515 88.8548 16.0414 89.2095C16.0292 89.2278 16.0169 89.2401 15.9986 89.2584C15.3259 91.5087 14.8245 93.545 14.4454 95.3244C9.38836 86.8797 6.38594 77.0469 6.19026 66.4987C6.11077 62.1693 6.52047 57.9439 7.34598 53.8592C6.00682 58.9284 5.32806 64.2606 5.4259 69.7641C5.62158 80.3857 8.6668 90.2796 13.8033 98.761C13.4364 101.072 13.3631 102.412 13.3631 102.412C13.4854 103.06 13.6994 103.641 14.0296 104.136C15.3382 106.099 17.5823 107.004 20.279 107.499C31.1636 119.625 47.044 127.146 64.6183 126.822C90.8451 126.339 112.688 108.563 119.487 84.5683C111.709 106.967 90.6189 123.227 65.5233 123.685Z" fill="#DF6954"/>
<path d="M44.7071 70.6816C44.4992 70.865 44.328 71.0607 44.1873 71.2625C43.8816 71.715 43.7532 72.2164 43.796 72.6995C43.8388 73.2009 44.065 73.7146 44.4686 74.1732C44.6765 74.4056 44.9272 74.6318 45.2269 74.8336C46.1625 75.4634 47.3365 75.7508 48.48 75.708C49.6113 75.6652 50.6936 75.3045 51.458 74.6379C51.6659 74.4545 51.8371 74.2588 51.9777 74.057C52.2835 73.6045 52.4119 73.1031 52.3691 72.62C52.3263 72.1186 52.1 71.6049 51.6964 71.1463C51.5375 70.969 51.354 70.7916 51.14 70.6326C51.0727 70.5898 50.9993 70.547 50.9321 70.4981C50.8648 70.4492 50.7976 70.4064 50.7303 70.3575C49.8314 69.8194 48.7491 69.5748 47.6851 69.6176C46.5599 69.6543 45.4776 70.0089 44.7071 70.6816Z" fill="#DF6954"/>
<path d="M59.0477 75.3408C58.216 74.7783 57.1643 74.5214 56.137 74.5581C55.128 74.5948 54.1618 74.9128 53.4831 75.512C53.2996 75.671 53.1468 75.8423 53.0245 76.0257C52.7554 76.4232 52.6453 76.8573 52.682 77.2731C52.7187 77.7134 52.9205 78.1598 53.2691 78.5634C53.4525 78.7713 53.6726 78.967 53.9417 79.1504C54.7733 79.713 55.8251 79.9698 56.8463 79.9331C57.8553 79.8964 58.8214 79.5724 59.5002 78.9792C59.6836 78.8202 59.8365 78.649 59.9588 78.4656C60.2217 78.0681 60.3379 77.6339 60.3012 77.2181C60.2645 76.7778 60.0627 76.3314 59.7142 75.9279C59.5369 75.7138 59.3167 75.5182 59.0477 75.3408Z" fill="#DF6954"/>
<path d="M51.4366 64.4254C51.2103 64.621 51.0269 64.8351 50.874 65.0552C50.5438 65.5444 50.4032 66.0886 50.4521 66.6145C50.501 67.1588 50.7456 67.7152 51.1798 68.2105C51.3999 68.4612 51.6751 68.6997 51.9931 68.9199C52.9959 69.5925 54.2556 69.9044 55.4786 69.8555C56.6893 69.8127 57.8511 69.4213 58.6767 68.7058C58.9029 68.5102 59.0864 68.2961 59.2392 68.076C59.5694 67.5807 59.7101 67.0426 59.6612 66.5167C59.6122 65.9663 59.3676 65.416 58.9335 64.9207C58.7623 64.7189 58.5544 64.5354 58.322 64.352C58.2486 64.3092 58.1813 64.2603 58.108 64.2174C58.0407 64.1685 57.9734 64.1257 57.9062 64.0707C56.9461 63.4898 55.7721 63.2268 54.6347 63.2696C53.4178 63.3185 52.256 63.7038 51.4366 64.4254Z" fill="#DF6954"/>
<path d="M52.0571 79.9887C51.3478 79.5117 50.4611 79.2977 49.5867 79.3283C48.7306 79.3589 47.9173 79.6279 47.3425 80.1294C47.1896 80.2639 47.0612 80.4045 46.9634 80.5574C46.7433 80.8815 46.6515 81.23 46.6821 81.5725C46.7127 81.9332 46.8778 82.3001 47.1652 82.6304C47.3181 82.8016 47.5076 82.9667 47.7278 83.1195C48.431 83.5965 49.3238 83.8105 50.1982 83.7799C51.0543 83.7494 51.8676 83.4803 52.4424 82.9789C52.5953 82.8444 52.7175 82.7037 52.8215 82.5509C53.0416 82.2268 53.1334 81.8782 53.1028 81.5358C53.0722 81.175 52.9071 80.8081 52.6197 80.4779C52.473 80.3067 52.2834 80.1416 52.0571 79.9887Z" fill="#DF6954"/>
<path d="M65.6747 69.4952C64.7269 68.8593 63.5345 68.5658 62.3727 68.6086C61.2231 68.6514 60.1285 69.0183 59.3458 69.697C59.1318 69.8805 58.9605 70.0823 58.8199 70.2902C58.508 70.7549 58.3796 71.2563 58.4224 71.7516C58.4652 72.2653 58.6976 72.7851 59.1012 73.2498C59.3091 73.4883 59.5659 73.7145 59.8717 73.9163C60.8195 74.5523 62.0119 74.8458 63.1737 74.803C64.3233 74.7602 65.424 74.3933 66.2006 73.7145C66.4146 73.5311 66.5858 73.3293 66.7265 73.1214C67.0383 72.6567 67.1668 72.1552 67.124 71.6599C67.0811 71.1463 66.8488 70.6265 66.4391 70.1618C66.2373 69.9294 65.9805 69.7031 65.6747 69.4952Z" fill="#DF6954"/>
<path d="M76.1571 58.929C75.4478 58.4521 74.5611 58.238 73.6867 58.2686C72.8306 58.2992 72.0173 58.5683 71.4425 59.0697C71.2896 59.2042 71.1673 59.3448 71.0634 59.4916C70.8432 59.8157 70.7515 60.1643 70.7821 60.5067C70.8127 60.8675 70.9778 61.2283 71.2652 61.5646C71.418 61.7419 71.6076 61.9009 71.8277 62.0538C72.5371 62.5308 73.4237 62.7448 74.2982 62.7142C75.1543 62.6836 75.9675 62.4146 76.5424 61.9132C76.6952 61.7786 76.8175 61.638 76.9215 61.4912C77.1416 61.1671 77.2333 60.8186 77.2028 60.4761C77.1722 60.1153 77.0071 59.7484 76.7197 59.4182C76.5668 59.2409 76.3834 59.0758 76.1571 58.929Z" fill="#DF6954"/>
<path d="M71.8369 64.163C71.0053 63.6004 69.9536 63.3436 68.9324 63.3803C67.9234 63.417 66.9572 63.7349 66.2785 64.3342C66.095 64.4932 65.9422 64.6644 65.8199 64.8478C65.5508 65.2453 65.4407 65.6734 65.4774 66.0953C65.5141 66.5356 65.7159 66.9819 66.0645 67.3855C66.2479 67.5934 66.4681 67.7891 66.7371 67.9726C67.5687 68.5351 68.6205 68.792 69.6478 68.7553C70.6568 68.7186 71.6229 68.4006 72.3017 67.8013C72.4851 67.6424 72.638 67.465 72.7603 67.2877C73.0294 66.8902 73.1394 66.4622 73.1027 66.0403C73.0661 65.6 72.8643 65.1536 72.5157 64.75C72.3261 64.536 72.0999 64.3403 71.8369 64.163Z" fill="#DF6954"/>
<path d="M39.2113 83.1251C39.3703 82.8927 39.4315 82.642 39.4131 82.3974C39.3887 82.1344 39.2664 81.8715 39.0524 81.6208C38.9362 81.4862 38.7955 81.3639 38.6182 81.2478C38.0679 80.8809 37.3708 80.7096 36.6859 80.7341C36.0194 80.7586 35.3834 80.9665 34.9431 81.3517C34.827 81.4496 34.7352 81.5596 34.6618 81.6697C34.5029 81.9021 34.4417 82.1528 34.4601 82.3974C34.4845 82.6603 34.6068 82.9233 34.8208 83.174C34.937 83.3085 35.0777 83.4308 35.255 83.547C35.8053 83.92 36.5024 84.0851 37.1873 84.0606C37.8538 84.0362 38.4898 83.8283 38.9301 83.443C39.0462 83.3391 39.138 83.2351 39.2113 83.1251Z" fill="#DF6954"/>
<path d="M44.6503 79.6273C44.8154 79.4866 44.9499 79.3337 45.0538 79.1686C45.2862 78.8201 45.3902 78.441 45.3535 78.0741C45.3168 77.6888 45.1456 77.2914 44.8337 76.9306C44.6686 76.7471 44.4668 76.5698 44.2283 76.4108C43.4762 75.9033 42.5284 75.6709 41.605 75.7076C40.6939 75.7443 39.8256 76.0317 39.2141 76.5637C39.049 76.7043 38.9145 76.8572 38.8105 77.0223C38.5781 77.3709 38.4742 77.75 38.5109 78.123C38.5414 78.5082 38.7188 78.9057 39.0306 79.2604C39.1957 79.4438 39.3975 79.6211 39.636 79.7862C40.3881 80.2938 41.336 80.5261 42.2593 80.4895C43.1704 80.4466 44.0388 80.1592 44.6503 79.6273Z" fill="#DF6954"/>
<path d="M33.97 85.3018C33.5786 85.0389 33.0772 84.9166 32.588 84.9349C32.111 84.9532 31.6647 85.1 31.3589 85.3691C31.2855 85.4363 31.2244 85.5036 31.1755 85.577C31.0776 85.7176 31.0409 85.8705 31.0532 86.0111C31.0654 86.1701 31.1449 86.3413 31.2855 86.4942C31.365 86.5859 31.4629 86.6715 31.579 86.751C31.9704 87.014 32.4718 87.1363 32.961 87.1179C33.438 87.0996 33.8844 86.9589 34.1901 86.6838C34.2635 86.6165 34.3246 86.5492 34.3736 86.4758C34.4714 86.3352 34.5081 86.1823 34.4958 86.0417C34.4836 85.8827 34.4041 85.7115 34.2635 85.5586C34.184 85.4669 34.0862 85.3813 33.97 85.3018Z" fill="#DF6954"/>
<path d="M31.4147 78.4049C31.8978 78.729 32.5154 78.8818 33.1147 78.8574C33.7017 78.839 34.2582 78.6556 34.6434 78.3132C34.7412 78.2276 34.8207 78.1358 34.888 78.0441C35.0164 77.8484 35.0775 77.6405 35.0592 77.4387C35.0409 77.2186 34.9369 76.9924 34.7535 76.7845C34.6556 76.6683 34.5272 76.5643 34.3804 76.4604C33.8974 76.1363 33.2798 75.9834 32.6805 76.0079C32.0935 76.0324 31.537 76.2097 31.1518 76.546C31.0539 76.6316 30.9744 76.7233 30.9133 76.815C30.7788 77.0107 30.7237 77.2186 30.7421 77.4204C30.7604 77.6405 30.8644 77.8668 31.0478 78.0747C31.1395 78.197 31.2618 78.307 31.4147 78.4049Z" fill="#DF6954"/>
<path d="M29.0059 81.4498C29.0182 81.6027 29.0916 81.7617 29.2261 81.9084C29.2995 81.994 29.3973 82.0735 29.5074 82.153C29.8865 82.4038 30.3635 82.5261 30.8404 82.5077C31.299 82.4894 31.7271 82.3548 32.0267 82.0919C32.1001 82.0307 32.1551 81.9635 32.2041 81.8962C32.2958 81.7617 32.3325 81.6272 32.3202 81.4926C32.308 81.3459 32.2346 81.1869 32.1001 81.034C32.0267 80.9484 31.9289 80.8689 31.8188 80.7894C31.4397 80.5326 30.9627 80.4164 30.4858 80.4347C30.0271 80.4531 29.5991 80.5937 29.2995 80.8506C29.2261 80.9117 29.171 80.979 29.1221 81.0462C29.0304 81.1746 28.9937 81.3153 29.0059 81.4498Z" fill="#DF6954"/>
<path d="M78.7042 54.721C78.2211 54.3969 77.6035 54.2441 76.9982 54.2685C76.4111 54.293 75.8547 54.4703 75.4694 54.8128C75.3716 54.8984 75.2921 54.9901 75.2248 55.0818C75.0964 55.2775 75.0353 55.4854 75.0536 55.6872C75.072 55.9073 75.1759 56.1336 75.3594 56.3415C75.4572 56.4577 75.5856 56.5677 75.7385 56.6656C76.2216 56.9897 76.8392 57.1425 77.4384 57.1181C78.0255 57.0936 78.5819 56.9163 78.9672 56.5738C79.065 56.4882 79.1445 56.3965 79.2118 56.3048C79.3402 56.1091 79.4013 55.9012 79.383 55.6994C79.3646 55.4793 79.2607 55.253 79.0772 55.0451C78.9794 54.9351 78.851 54.825 78.7042 54.721Z" fill="#DF6954"/>
<path d="M40.1762 86.3112C39.7971 86.0544 39.3201 85.9382 38.8432 85.9566C38.3846 85.9749 37.9565 86.1095 37.6569 86.3724C37.5835 86.4335 37.5285 86.5008 37.4796 86.5681C37.3878 86.7026 37.3511 86.8432 37.3634 86.9717C37.3756 87.1245 37.449 87.2835 37.5835 87.4303C37.6569 87.5159 37.7547 87.5954 37.8648 87.6749C38.2439 87.9256 38.7209 88.0479 39.1978 88.0295C39.6565 88.0112 40.0845 87.8767 40.3841 87.6137C40.4575 87.5526 40.5126 87.4853 40.5615 87.4181C40.6532 87.2835 40.6899 87.1429 40.6777 87.0145C40.6654 86.8677 40.592 86.7087 40.4575 86.5558C40.3903 86.4702 40.2924 86.3846 40.1762 86.3112Z" fill="#DF6954"/>
<path d="M45.4364 83.8039C44.9533 83.4798 44.3357 83.3269 43.7364 83.3514C43.1494 83.3759 42.5929 83.5532 42.2077 83.8956C42.1099 83.9813 42.0304 84.073 41.9631 84.1647C41.8347 84.3604 41.7735 84.5683 41.7919 84.7701C41.8102 84.9902 41.9142 85.2165 42.0976 85.4244C42.1955 85.5406 42.3239 85.6507 42.4706 85.7485C42.9537 86.0726 43.5713 86.2255 44.1767 86.201C44.7637 86.1765 45.3202 85.9992 45.7054 85.6568C45.8033 85.5712 45.8828 85.4794 45.95 85.3877C46.0784 85.192 46.1396 84.9841 46.1212 84.7823C46.1029 84.5622 45.9989 84.3359 45.8155 84.128C45.7115 84.0118 45.5831 83.9018 45.4364 83.8039Z" fill="#DF6954"/>
<path d="M44.4261 63.6305C45.3739 64.2665 46.5663 64.56 47.7282 64.5172C48.8778 64.4744 49.9723 64.1075 50.7551 63.4287C50.9691 63.2453 51.1403 63.0435 51.2809 62.8356C51.5928 62.3709 51.7212 61.8695 51.6784 61.3741C51.6356 60.8605 51.4032 60.3407 50.9935 59.876C50.7856 59.6375 50.5288 59.4113 50.2231 59.2034C49.2752 58.5674 48.0828 58.2739 46.921 58.3167C45.7714 58.3595 44.6768 58.7264 43.8941 59.4052C43.6801 59.5886 43.5089 59.7904 43.3682 59.9983C43.0564 60.4569 42.928 60.9644 42.9708 61.4598C43.0136 61.9734 43.2459 62.4932 43.6556 62.9579C43.8635 63.2025 44.1204 63.4287 44.4261 63.6305Z" fill="#DF6954"/>
<path d="M51.0635 57.7906C51.8951 58.3531 52.9469 58.61 53.9681 58.5733C54.9771 58.5366 55.9432 58.2125 56.622 57.6194C56.8054 57.4604 56.9583 57.2891 57.0806 57.1057C57.3496 56.7082 57.4597 56.2741 57.423 55.8583C57.3863 55.418 57.1845 54.9716 56.836 54.568C56.6525 54.3601 56.4263 54.1644 56.1634 53.981C55.3317 53.4184 54.28 53.1616 53.2588 53.1983C52.2498 53.235 51.2837 53.5529 50.6049 54.1522C50.4215 54.3112 50.2686 54.4824 50.1463 54.6658C49.8772 55.0633 49.7672 55.4975 49.8039 55.9133C49.8405 56.3536 50.0423 56.8 50.3909 57.2035C50.5743 57.4114 50.8006 57.6071 51.0635 57.7906Z" fill="#DF6954"/>
<path d="M38.2743 68.969C39.106 69.5316 40.1577 69.7884 41.1789 69.7518C42.1879 69.7151 43.154 69.3971 43.8328 68.7978C44.0162 68.6388 44.1691 68.4676 44.2914 68.2842C44.5605 67.8867 44.6705 67.4525 44.6338 67.0367C44.5971 66.5964 44.3954 66.1501 44.0468 65.7465C43.8634 65.5386 43.6432 65.3429 43.3742 65.1594C42.5425 64.5969 41.4908 64.34 40.4635 64.3767C39.4545 64.4134 38.4884 64.7314 37.8096 65.3307C37.6262 65.4896 37.4733 65.6609 37.351 65.8443C37.0819 66.2418 36.9719 66.6698 37.0086 67.0918C37.0453 67.532 37.247 67.9784 37.5956 68.382C37.7852 68.5899 38.0053 68.7917 38.2743 68.969Z" fill="#DF6954"/>
<path d="M77.9141 51.2354C77.8224 51.37 77.7857 51.5106 77.7979 51.639C77.8102 51.7919 77.8835 51.9509 78.0181 52.0976C78.0915 52.1832 78.1893 52.2627 78.2994 52.3422C78.6785 52.5991 79.1616 52.7152 79.6324 52.6969C80.091 52.6786 80.5191 52.5379 80.8187 52.2811C80.886 52.2199 80.9471 52.1527 80.9961 52.0854C81.0878 51.9509 81.1245 51.8102 81.1122 51.6818C81.1 51.529 81.0266 51.3761 80.8921 51.2232C80.8187 51.1376 80.7209 51.0581 80.6108 50.9786C80.2317 50.7218 79.7547 50.6056 79.2778 50.6239C78.8191 50.6423 78.3911 50.7829 78.0915 51.0398C78.0181 51.1009 77.9569 51.1682 77.9141 51.2354Z" fill="#DF6954"/>
<path d="M33.9585 74.2035C34.6617 74.6805 35.5545 74.8945 36.4289 74.8639C37.285 74.8334 38.0983 74.5643 38.6731 74.0629C38.826 73.9283 38.9483 73.7877 39.0522 73.6409C39.2662 73.3169 39.3641 72.9683 39.3335 72.6259C39.3029 72.2651 39.1378 71.8982 38.8504 71.568C38.6975 71.3907 38.508 71.2317 38.2878 71.0788C37.5846 70.6018 36.6918 70.3878 35.8174 70.4184C34.9613 70.449 34.148 70.718 33.5732 71.2194C33.4204 71.354 33.2981 71.4946 33.1941 71.6475C32.974 71.9716 32.8823 72.3201 32.9128 72.6626C32.9434 73.0233 33.1085 73.3902 33.3959 73.7204C33.5427 73.8855 33.7322 74.0506 33.9585 74.2035Z" fill="#DF6954"/>
<path d="M29.8932 75.1205C30.3457 74.7292 30.89 74.4479 31.4831 74.2828C31.2202 73.8181 31.0673 73.3228 31.0245 72.8213C30.9572 72.0447 31.1529 71.2681 31.6115 70.5772C31.8011 70.2959 32.0335 70.0268 32.3147 69.7822C33.1647 69.0423 34.296 68.6204 35.4639 68.5287C35.2805 68.119 35.1704 67.6909 35.1337 67.2629C35.0603 66.4068 35.2744 65.5446 35.788 64.7863C35.9959 64.4745 36.2589 64.181 36.5707 63.9058C37.5919 63.013 38.98 62.536 40.3987 62.4871C40.6861 62.4749 40.9735 62.481 41.2609 62.5055C41.1753 62.2242 41.1141 61.9307 41.0896 61.6372C41.0101 60.7077 41.2425 59.7721 41.799 58.9466C42.0313 58.6042 42.3126 58.2801 42.6551 57.9865C43.7741 57.0082 45.2967 56.4884 46.856 56.4334C47.229 56.4211 47.5959 56.4334 47.9689 56.47C47.9445 56.3477 47.9261 56.2193 47.92 56.0909C47.8466 55.2348 48.0606 54.3726 48.5743 53.6144C48.7822 53.3025 49.0451 53.0029 49.357 52.7338C50.3782 51.8411 51.7663 51.3641 53.1849 51.3152C53.8209 51.2907 54.4691 51.3519 55.0989 51.5047C55.0928 50.8199 55.2885 50.1411 55.7043 49.5296C55.8938 49.2483 56.1262 48.9793 56.4075 48.7347C57.3186 47.9397 58.5599 47.5117 59.8257 47.4628C60.6023 47.4322 61.3973 47.5484 62.1372 47.8052C62.2044 47.42 62.3512 47.0409 62.5897 46.6923C62.7425 46.4661 62.9321 46.252 63.1584 46.0502C63.8799 45.4143 64.8644 45.078 65.8611 45.0413C66.4604 45.0168 67.0719 45.1085 67.6467 45.3042C67.7201 45.0841 67.824 44.8639 67.9647 44.6622C68.0992 44.4604 68.2704 44.2708 68.4661 44.0935C69.102 43.537 69.952 43.2435 70.8264 43.2129C71.6825 43.1823 72.5692 43.4025 73.2908 43.8856C73.5415 44.0568 73.7616 44.2463 73.9451 44.4604C74.1346 44.6744 74.2814 44.9067 74.3914 45.1452C74.4465 45.0902 74.5015 45.0413 74.5565 44.9924C75.2047 44.4298 76.073 44.124 76.9597 44.0935C77.8341 44.0629 78.7391 44.2891 79.4729 44.7844C79.7298 44.9557 79.9499 45.1513 80.1395 45.3654C80.543 45.8301 80.7754 46.3743 80.8243 46.9308C80.8732 47.5056 80.7326 48.0804 80.3902 48.5879C80.3351 48.6674 80.2801 48.7469 80.2189 48.8203C80.7326 48.9242 81.2279 49.1199 81.656 49.4134C81.9067 49.5847 82.1268 49.7742 82.3102 49.9882C82.7077 50.4469 82.9401 50.9789 82.9829 51.5292C83.0318 52.0979 82.8912 52.6605 82.5548 53.1619C82.4203 53.3637 82.2552 53.5532 82.0534 53.7306C81.7171 54.0241 81.3257 54.2442 80.8977 54.391C81.0995 54.7579 81.2218 55.1553 81.2585 55.5528C81.3135 56.1888 81.1545 56.8247 80.7754 57.3873C80.6225 57.6135 80.433 57.8276 80.2067 58.0293C79.7603 58.4207 79.21 58.702 78.6168 58.8671C78.8798 59.3318 79.0327 59.8271 79.0816 60.3286C79.1488 61.1052 78.9532 61.8818 78.4945 62.5727C78.305 62.854 78.0726 63.1231 77.7913 63.3677C76.9475 64.1076 75.8162 64.5295 74.6422 64.6212C74.8256 65.0309 74.9357 65.459 74.9724 65.887C75.0457 66.7431 74.8317 67.5992 74.3181 68.3636C74.1102 68.6754 73.8472 68.9751 73.5354 69.2441C72.5142 70.1369 71.1261 70.6138 69.7074 70.6628C69.42 70.675 69.1326 70.6689 68.8452 70.6444C68.9308 70.9318 68.992 71.2192 69.0164 71.5127C69.0959 72.4422 68.8636 73.3717 68.3071 74.2033C68.0747 74.5457 67.7934 74.8698 67.451 75.1633C66.332 76.1417 64.8094 76.6615 63.2501 76.7165C62.8832 76.7288 62.5102 76.7165 62.1372 76.6798C62.1616 76.8083 62.18 76.9306 62.1922 77.059C62.2656 77.9151 62.0515 78.7711 61.5379 79.5355C61.33 79.8474 61.067 80.1409 60.7552 80.416C59.734 81.3088 58.3459 81.7858 56.9211 81.8347C56.2852 81.8592 55.637 81.798 55.0072 81.6513C55.0133 82.3361 54.8176 83.0149 54.4018 83.6264C54.2122 83.9077 53.9799 84.1767 53.6986 84.4213C52.7875 85.2163 51.5461 85.6443 50.2803 85.6932C49.5038 85.7177 48.7088 85.6076 47.9689 85.3508C47.9017 85.736 47.7549 86.1151 47.5164 86.4637C47.3635 86.6899 47.174 86.904 46.9477 87.1058C46.2262 87.7417 45.2417 88.078 44.2449 88.1147C43.6457 88.1392 43.0342 88.0536 42.4594 87.8518C42.386 88.078 42.2821 88.2921 42.1414 88.5C42.0069 88.7018 41.8357 88.8913 41.64 89.0687C41.004 89.6251 40.1479 89.9186 39.2796 89.9492C38.4235 89.9798 37.5369 89.7535 36.8153 89.2766C36.5646 89.1053 36.3445 88.9158 36.161 88.7018C35.947 88.4572 35.7819 88.182 35.6657 87.9007C35.5923 87.9802 35.5128 88.0597 35.4272 88.1331C34.7791 88.6956 33.9107 89.0014 33.0241 89.032C32.1496 89.0625 31.2446 88.8363 30.5108 88.341C30.254 88.1698 30.0339 87.9741 29.8443 87.7539C29.4346 87.2892 29.2084 86.745 29.1595 86.1885C29.1105 85.6137 29.2512 85.0389 29.5936 84.5314C29.6425 84.458 29.6976 84.3785 29.7587 84.3113C29.294 84.2012 28.8476 84.0177 28.4501 83.7487C28.1994 83.5775 27.9793 83.3879 27.7958 83.1739C27.3984 82.7153 27.1721 82.1833 27.1232 81.6329C27.0743 81.0642 27.2149 80.5017 27.5512 80.0002C27.6858 79.7984 27.857 79.6089 28.0527 79.4315C28.3829 79.138 28.7803 78.9179 29.2084 78.7711C29.0066 78.4043 28.8843 78.0068 28.8476 77.6093C28.7926 76.9734 28.9515 76.3374 29.3246 75.781C29.4774 75.5364 29.667 75.3223 29.8932 75.1205ZM24.3837 86.0234C23.9618 88.7079 23.1363 90.7136 24.133 92.2545C25.197 93.8994 27.3372 93.3919 30.3274 93.3124C32.8039 93.2451 35.6841 92.6642 38.5397 92.4135C45.6636 91.7959 53.723 88.2982 62.2533 82.3912C73.2235 74.7903 81.1362 65.5507 83.625 57.1488C86.8536 46.2581 81.3869 42.0511 73.2908 42.0205C67.928 42.0022 61.9109 44.0384 56.3341 46.6495C48.1462 50.4897 35.1031 61.2825 28.8537 72.0447C26.1937 76.6248 25.1358 81.2293 24.3837 86.0234Z" fill="#DF6954"/>
<path d="M58.0429 53.1372C58.7462 53.6142 59.6389 53.8282 60.5134 53.7977C61.3694 53.7671 62.1827 53.498 62.7575 52.9966C62.9104 52.8621 63.0388 52.7214 63.1366 52.5747C63.3507 52.2506 63.4485 51.902 63.4179 51.5596C63.3873 51.1988 63.2222 50.8319 62.9348 50.5017C62.782 50.3305 62.5924 50.1654 62.3723 50.0125C61.6691 49.5356 60.7763 49.3215 59.9019 49.3521C59.0458 49.3827 58.2325 49.6517 57.6577 50.1532C57.5048 50.2877 57.3825 50.4283 57.2786 50.5751C57.0584 50.8992 56.9667 51.2477 56.9973 51.5902C57.0279 51.9509 57.193 52.3178 57.4804 52.648C57.6332 52.8254 57.8228 52.9905 58.0429 53.1372Z" fill="#DF6954"/>
<path d="M69.9258 46.8211C70.3049 47.0779 70.7819 47.1941 71.2589 47.1758C71.7175 47.1574 72.1455 47.0168 72.4452 46.76C72.5185 46.6988 72.5736 46.6316 72.6225 46.5643C72.7142 46.4298 72.7509 46.2891 72.7387 46.1607C72.7264 46.0139 72.6531 45.8488 72.5185 45.7021C72.4452 45.6165 72.3473 45.537 72.2373 45.4575C71.8581 45.2007 71.3812 45.0845 70.9042 45.1028C70.4456 45.1212 70.0175 45.2557 69.7179 45.5186C69.6445 45.5798 69.5895 45.6471 69.5406 45.7143C69.4489 45.8488 69.4122 45.9895 69.4244 46.1179C69.4366 46.2708 69.51 46.4298 69.6445 46.5765C69.7179 46.6621 69.8096 46.7416 69.9258 46.8211Z" fill="#DF6954"/>
<path d="M70.8983 50.0008C70.7393 50.2332 70.6721 50.4839 70.6965 50.7285C70.721 50.9914 70.8433 51.2544 71.0573 51.5051C71.1735 51.6396 71.3141 51.7619 71.4915 51.8781C72.0418 52.2511 72.7389 52.4223 73.4238 52.3917C74.0903 52.3673 74.7263 52.1594 75.1666 51.7741C75.2828 51.6763 75.3745 51.5662 75.4479 51.4562C75.6068 51.2238 75.6741 50.9731 75.6496 50.7285C75.6252 50.4717 75.509 50.2026 75.2889 49.9519C75.1727 49.8174 75.032 49.6951 74.8547 49.5789C74.3044 49.2059 73.6073 49.0408 72.9224 49.0652C72.2559 49.0897 71.6199 49.2976 71.1796 49.6828C71.0634 49.7868 70.9717 49.8907 70.8983 50.0008Z" fill="#DF6954"/>
<path d="M76.028 47.7872C76.4194 48.0501 76.9208 48.1724 77.41 48.1541C77.887 48.1357 78.3334 47.989 78.6391 47.7199C78.7125 47.6527 78.7737 47.5854 78.8226 47.512C78.9204 47.3714 78.9571 47.2185 78.9449 47.0779C78.9326 46.9189 78.8531 46.7476 78.7125 46.5887C78.633 46.4969 78.5352 46.4113 78.419 46.3318C78.0276 46.0689 77.5262 45.9466 77.037 45.9649C76.56 45.9833 76.1136 46.13 75.8079 46.3991C75.7345 46.4664 75.6734 46.5336 75.6244 46.607C75.5266 46.7476 75.4899 46.9005 75.5021 47.0412C75.5144 47.2002 75.5939 47.3714 75.7345 47.5243C75.8079 47.6221 75.9057 47.7077 76.028 47.7872Z" fill="#DF6954"/>
<path d="M59.1715 62.6397C60.107 63.2696 61.2811 63.557 62.4246 63.5142C63.5559 63.4714 64.6382 63.1106 65.4026 62.4441C65.6105 62.2606 65.7817 62.0649 65.9223 61.8631C66.2281 61.4106 66.3565 60.9092 66.3137 60.4261C66.2709 59.9247 66.0446 59.4111 65.6411 58.9525C65.4331 58.714 65.1824 58.4938 64.8828 58.292C63.9472 57.6622 62.7731 57.3748 61.6235 57.4176C60.4923 57.4604 59.4099 57.8212 58.6456 58.4877C58.4377 58.6712 58.2665 58.8668 58.1258 59.0686C57.8201 59.5211 57.6916 60.0226 57.7345 60.5056C57.7773 61.0071 58.0035 61.5207 58.4071 61.9793C58.615 62.2178 58.8718 62.4379 59.1715 62.6397Z" fill="#DF6954"/>
<path d="M65.3157 53.4493C65.1445 53.6022 64.9977 53.7673 64.8815 53.9385C64.6308 54.3115 64.5207 54.7212 64.5574 55.1187C64.5941 55.5345 64.7837 55.9564 65.1139 56.3355C65.2851 56.5312 65.4991 56.7208 65.756 56.892C66.5509 57.424 67.5476 57.6747 68.526 57.638C69.486 57.6013 70.4094 57.2956 71.0576 56.733C71.2288 56.5801 71.3755 56.4211 71.4917 56.2499C71.7424 55.8769 71.8464 55.4672 71.8158 55.0697C71.7791 54.6539 71.5896 54.232 71.2594 53.8529C71.0881 53.6572 70.8741 53.4676 70.6173 53.2964C69.8224 52.7644 68.8195 52.5137 67.8472 52.5504C66.8811 52.5748 65.9639 52.8806 65.3157 53.4493Z" fill="#DF6954"/>
<path d="M64.6774 49.3279C65.1605 49.652 65.7781 49.8049 66.3774 49.7804C66.9644 49.7621 67.5209 49.5786 67.9061 49.2423C68.0039 49.1567 68.0834 49.065 68.1446 48.9732C68.273 48.7776 68.3341 48.5697 68.3158 48.3679C68.2975 48.1477 68.1935 47.9215 68.0101 47.7136C67.9122 47.5974 67.7838 47.4934 67.637 47.3895C67.154 47.0654 66.5364 46.9125 65.9371 46.937C65.3501 46.9614 64.7936 47.1388 64.4084 47.4751C64.3105 47.5607 64.231 47.6524 64.1699 47.7441C64.0354 47.9398 63.9803 48.1477 63.9987 48.3495C64.017 48.5697 64.121 48.7959 64.3044 49.0038C64.4023 49.1139 64.5307 49.224 64.6774 49.3279Z" fill="#DF6954"/>
<path d="M7.46508 46.545C7.47119 45.9579 7.41616 45.3526 7.31221 44.7166C7.20825 44.0807 7.01869 43.4814 6.74963 42.9188L7.20214 41.812L16.2339 45.481L15.5918 47.0586L8.66972 44.2519C8.75533 44.5576 8.81647 44.9306 8.84705 45.3526C8.87762 45.7806 8.87762 46.1781 8.85928 46.5572L7.46508 46.545Z" fill="#DF6954"/>
<path d="M16.546 34.6641C17.9585 35.4957 18.8941 36.3946 19.3466 37.3546C19.7991 38.3147 19.7563 39.2564 19.2182 40.1675C18.6801 41.0786 17.8851 41.5739 16.8211 41.6473C15.7633 41.7207 14.5219 41.3415 13.1094 40.5099C12.4062 40.0941 11.8191 39.6599 11.3544 39.2074C10.8897 38.7549 10.5411 38.2902 10.321 37.8194C10.1009 37.3485 9.99691 36.8715 10.0152 36.4007C10.0336 35.9298 10.1742 35.4651 10.4433 35.0126C10.9814 34.1015 11.7825 33.6062 12.8403 33.5328C13.8921 33.4533 15.1334 33.8324 16.546 34.6641ZM15.6532 36.1806C15.219 35.9237 14.7971 35.7097 14.3874 35.5324C13.9777 35.355 13.6047 35.245 13.2623 35.1899C12.9198 35.1349 12.6141 35.1471 12.3511 35.2327C12.0882 35.3184 11.8742 35.4896 11.7152 35.7586C11.5562 36.0277 11.5073 36.2967 11.5623 36.5719C11.6174 36.8471 11.7519 37.1223 11.9659 37.3974C12.1799 37.6726 12.4673 37.9417 12.8159 38.2107C13.1705 38.4798 13.5619 38.7427 14.0022 38.9995C14.4363 39.2564 14.8583 39.4765 15.268 39.6538C15.6715 39.8312 16.0507 39.9473 16.3931 40.0024C16.7355 40.0574 17.0413 40.0391 17.3103 39.9535C17.5794 39.8679 17.7934 39.6905 17.9463 39.4215C18.1053 39.1524 18.1542 38.8833 18.0931 38.6143C18.038 38.3391 17.9035 38.0701 17.6834 37.7949C17.4693 37.5197 17.188 37.2507 16.8334 36.9755C16.4787 36.7003 16.0935 36.4374 15.6532 36.1806Z" fill="#DF6954"/>
<path d="M21.6993 28.0722C22.9773 29.0995 23.7722 30.1207 24.078 31.1419C24.3837 32.1569 24.2064 33.0803 23.546 33.9058C22.8795 34.7313 22.0234 35.1043 20.9594 35.0248C19.9015 34.9453 18.7336 34.3889 17.4494 33.3616C16.8135 32.8479 16.2998 32.3343 15.9024 31.8206C15.5049 31.3008 15.2297 30.7933 15.083 30.2919C14.9301 29.7905 14.8995 29.3074 14.9851 28.8426C15.0707 28.3779 15.2786 27.9376 15.6088 27.5279C16.2754 26.7024 17.1315 26.3294 18.1954 26.4089C19.2472 26.4884 20.4152 27.0387 21.6993 28.0722ZM20.5925 29.4419C20.2011 29.1239 19.8098 28.8488 19.4307 28.6164C19.0515 28.384 18.6969 28.2189 18.3667 28.115C18.0365 28.011 17.7307 27.9804 17.4555 28.0232C17.1804 28.0661 16.948 28.2067 16.7523 28.4513C16.5567 28.6959 16.471 28.9527 16.4833 29.234C16.4955 29.5153 16.5933 29.8088 16.7646 30.1084C16.9358 30.4081 17.1804 30.7199 17.4922 31.0379C17.8041 31.3559 18.1588 31.6677 18.5501 31.9857C18.9476 32.3037 19.3328 32.5789 19.7058 32.8173C20.0788 33.0558 20.4335 33.2209 20.7637 33.3249C21.0939 33.4288 21.3997 33.4594 21.6809 33.4105C21.9622 33.3616 22.1946 33.2209 22.3903 32.9763C22.586 32.7378 22.6716 32.4749 22.6532 32.1997C22.6349 31.9246 22.5431 31.631 22.3658 31.3314C22.1946 31.0318 21.9561 30.7199 21.6443 30.4019C21.3446 30.0779 20.99 29.7538 20.5925 29.4419Z" fill="#DF6954"/>
<path d="M24.7829 21.7551C25.3393 22.4033 25.5962 23.0454 25.5656 23.6752C25.535 24.305 25.2476 24.8554 24.7156 25.3079C24.4527 25.5341 24.1714 25.6992 23.8779 25.7971C23.5782 25.8949 23.2786 25.9316 22.979 25.8949C22.6732 25.8582 22.3736 25.7481 22.0679 25.5769C21.7621 25.3996 21.4747 25.155 21.1995 24.8309C20.637 24.1766 20.374 23.5345 20.4107 22.9047C20.4474 22.2749 20.7287 21.7306 21.2668 21.2781C21.7988 20.8195 22.3797 20.6238 23.0096 20.685C23.6333 20.74 24.2264 21.1008 24.7829 21.7551ZM23.7678 22.6234C23.4437 22.2443 23.1319 22.0242 22.8322 21.9508C22.5326 21.8835 22.2635 21.9508 22.0189 22.1587C21.7743 22.3666 21.6704 22.6234 21.6948 22.9292C21.7193 23.2349 21.8966 23.5773 22.2207 23.9504C22.5448 24.3295 22.8506 24.5557 23.1502 24.6291C23.4498 24.7025 23.7189 24.6352 23.9574 24.4273C24.202 24.2194 24.312 23.9626 24.2876 23.6568C24.2631 23.345 24.0919 23.0025 23.7678 22.6234ZM25.3638 18.0372L26.5929 16.9855L28.7515 27.9679L27.5224 29.0196L25.3638 18.0372ZM32.9402 21.1803C33.4966 21.8285 33.7535 22.4706 33.7229 23.1004C33.6923 23.7302 33.4049 24.2806 32.8729 24.7331C32.61 24.9593 32.3287 25.1183 32.0291 25.2223C31.7294 25.3201 31.4298 25.3568 31.1302 25.314C30.8244 25.2773 30.5248 25.1733 30.219 24.996C29.9133 24.8187 29.6259 24.568 29.3507 24.25C28.7881 23.5957 28.5252 22.9536 28.5619 22.3238C28.5986 21.694 28.886 21.1497 29.418 20.6972C29.95 20.2386 30.5309 20.0429 31.1607 20.1041C31.7845 20.1652 32.3776 20.526 32.9402 21.1803ZM31.9251 22.0486C31.601 21.6695 31.2891 21.4494 30.9895 21.376C30.6899 21.3026 30.4147 21.376 30.1762 21.5839C29.9316 21.7918 29.8277 22.0486 29.8521 22.3544C29.8766 22.6601 30.0539 23.0026 30.378 23.3756C30.7021 23.7547 31.014 23.9809 31.3075 24.0543C31.6071 24.1277 31.8762 24.0604 32.1147 23.8525C32.3593 23.6446 32.4693 23.3878 32.4449 23.082C32.4204 22.7702 32.2492 22.4277 31.9251 22.0486Z" fill="#DF6954"/>
<path d="M36.6499 10.7303C37.9218 10.1066 39.0103 9.86197 39.9153 9.9965C40.8203 10.131 41.5113 10.6875 41.9944 11.672C42.2451 12.1856 42.3674 12.6687 42.3674 13.1273C42.3674 13.5798 42.2451 14.0079 42.0127 14.4115C41.7803 14.815 41.444 15.188 40.9976 15.5427C40.5512 15.8974 40.0131 16.2276 39.3711 16.5394L38.5761 16.9308L40.0804 20.0127L38.4905 20.7893L34.2773 12.1551C34.6075 11.8921 34.9867 11.6353 35.4269 11.3846C35.8611 11.1339 36.2708 10.9198 36.6499 10.7303ZM37.4326 12.0511C37.029 12.2468 36.6988 12.4241 36.4542 12.577L37.9096 15.5611L38.6801 15.1819C39.4444 14.8089 39.9825 14.4115 40.2944 13.9956C40.6002 13.5798 40.6124 13.0723 40.3189 12.473C40.1782 12.1856 40.007 11.9716 39.8052 11.831C39.6034 11.6903 39.3772 11.6108 39.1265 11.5986C38.8758 11.5864 38.6128 11.6169 38.3254 11.7026C38.0319 11.7882 37.7384 11.9043 37.4326 12.0511Z" fill="#DF6954"/>
<path d="M51.7373 15.2859C51.4499 15.4632 51.0647 15.6712 50.5877 15.9096C50.1108 16.1481 49.5727 16.3621 48.9734 16.5456C48.4108 16.7229 47.9094 16.7841 47.4814 16.7413C47.0533 16.6985 46.6742 16.57 46.3623 16.3499C46.0444 16.1359 45.7753 15.8424 45.5552 15.4755C45.335 15.1086 45.1516 14.6867 45.0048 14.2097L43.788 10.2717L45.4145 9.77026L46.5519 13.4514C46.7843 14.2036 47.0594 14.705 47.3774 14.9618C47.6954 15.2186 48.1296 15.2615 48.6738 15.0902C48.8695 15.0291 49.0774 14.9557 49.2914 14.8701C49.5054 14.7845 49.6583 14.7111 49.7622 14.65L48.0073 8.96309L49.6338 8.46167L51.7373 15.2859Z" fill="#DF6954"/>
<path d="M56.7934 8.68786C56.6466 8.6634 56.4448 8.65117 56.1941 8.64506C55.9434 8.63894 55.6499 8.6634 55.3258 8.71844C55.1423 8.74901 54.9467 8.80405 54.7449 8.87742C54.5431 8.9508 54.4024 9.00584 54.3229 9.04864L55.3319 14.8578L53.6564 15.1513L52.4579 8.24759C52.7575 8.07026 53.1428 7.88681 53.6136 7.69725C54.0783 7.50768 54.6103 7.36093 55.1974 7.25697C55.3074 7.23863 55.4358 7.22028 55.5887 7.20805C55.7416 7.19582 55.8883 7.18971 56.0412 7.18359C56.1941 7.18359 56.3409 7.1836 56.4876 7.18971C56.6344 7.19582 56.7444 7.20805 56.8362 7.22028L56.7934 8.68786Z" fill="#DF6954"/>
<path d="M68.7341 10.4245C68.728 11.0176 68.6362 11.5435 68.4589 12.0204C68.2816 12.4913 68.0309 12.8949 67.7007 13.2312C67.3766 13.5675 66.9791 13.8182 66.5205 13.9956C66.0619 14.1729 65.5421 14.2524 64.9551 14.2524C64.3925 14.2463 63.8544 14.2035 63.3468 14.1117C62.8393 14.02 62.4113 13.9283 62.075 13.8182L62.1606 3.41066L63.8666 3.1416L63.836 6.95119C64.0317 6.84723 64.2763 6.75551 64.5637 6.67602C64.8511 6.59652 65.1691 6.55372 65.5115 6.55983C66.0252 6.56595 66.4899 6.65767 66.8935 6.84724C67.2971 7.03068 67.6395 7.29974 67.9086 7.63606C68.1776 7.97849 68.3855 8.38208 68.5262 8.85904C68.6729 9.32989 68.7402 9.85577 68.7341 10.4245ZM66.9913 10.3816C66.9974 9.66009 66.8568 9.08529 66.5755 8.66336C66.2942 8.24143 65.8417 8.0213 65.2241 8.0213C64.9428 8.0213 64.6799 8.05799 64.4292 8.14359C64.1785 8.22309 63.9767 8.32093 63.8299 8.41877L63.7932 12.6503C63.9155 12.6809 64.0745 12.7053 64.2641 12.7298C64.4536 12.7542 64.686 12.7665 64.9612 12.7726C65.591 12.7787 66.0863 12.5708 66.441 12.1427C66.8018 11.7208 66.9852 11.1338 66.9913 10.3816Z" fill="#DF6954"/>
<path d="M70.3245 10.6264C70.4284 9.99047 70.6119 9.44624 70.8809 8.99374C71.15 8.54124 71.468 8.18657 71.8349 7.91752C72.2018 7.64846 72.5992 7.47113 73.0334 7.37329C73.4676 7.27545 73.8956 7.26322 74.3236 7.3366C75.3204 7.5017 76.0542 7.93586 76.5128 8.65131C76.9714 9.36064 77.0998 10.3329 76.898 11.562C76.8797 11.6537 76.8613 11.7577 76.8369 11.8739C76.8124 11.99 76.788 12.094 76.7635 12.1857L71.9755 11.403C71.9266 11.9962 72.055 12.4792 72.373 12.8584C72.6848 13.2375 73.1863 13.4821 73.8834 13.5983C74.2931 13.6655 74.6661 13.69 75.0207 13.6716C75.3754 13.6533 75.6506 13.6166 75.8585 13.5677V14.9802C75.7606 15.0108 75.6261 15.0414 75.4549 15.0658C75.2837 15.0903 75.0941 15.1087 74.874 15.1148C74.66 15.1209 74.4276 15.1209 74.183 15.1087C73.9384 15.0964 73.6877 15.072 73.4431 15.0292C72.801 14.9252 72.2629 14.7356 71.8226 14.4727C71.3824 14.2036 71.0338 13.8796 70.7831 13.4882C70.5324 13.103 70.3734 12.6627 70.3 12.1857C70.2205 11.6843 70.2328 11.1707 70.3245 10.6264ZM75.3143 10.6692C75.3509 10.4369 75.3571 10.2106 75.3265 9.99659C75.2959 9.77645 75.2287 9.58077 75.1308 9.40956C75.033 9.23834 74.8984 9.09158 74.7333 8.9754C74.5682 8.85921 74.3603 8.77972 74.1096 8.73692C73.8528 8.69411 73.6143 8.70634 73.4064 8.77361C73.1985 8.84087 73.0089 8.93871 72.8499 9.07324C72.691 9.20776 72.5564 9.37287 72.4525 9.56243C72.3424 9.75199 72.2629 9.95378 72.1957 10.1617L75.3143 10.6692Z" fill="#DF6954"/>
<path d="M83.5115 17.2791C83.1752 17.2607 82.741 17.2118 82.2152 17.1384C81.6893 17.065 81.1267 16.9305 80.5274 16.7348C79.9649 16.5575 79.5185 16.3251 79.1944 16.0377C78.8642 15.7565 78.6318 15.4324 78.4973 15.0777C78.3628 14.7169 78.3077 14.3256 78.3383 13.8975C78.3689 13.4695 78.4606 13.017 78.6074 12.5461L79.867 8.62036L81.4875 9.14013L80.3134 12.8091C80.0749 13.5612 80.0077 14.1299 80.1239 14.5212C80.24 14.9126 80.5703 15.1939 81.1145 15.3712C81.3102 15.4324 81.5242 15.4935 81.7443 15.5424C81.9706 15.5975 82.1418 15.6219 82.2519 15.6342L84.068 9.97176L85.6884 10.4915L83.5115 17.2791Z" fill="#DF6954"/>
<path d="M91.426 14.7601C91.3159 14.6561 91.1631 14.5338 90.9613 14.3809C90.7595 14.2281 90.5087 14.0813 90.2091 13.9468C90.0379 13.8673 89.8483 13.8 89.6465 13.745C89.4386 13.6899 89.2919 13.6594 89.2002 13.6471L86.7053 18.9855L85.1643 18.2639L88.13 11.9166C88.4786 11.9472 88.9005 12.0145 89.3897 12.1245C89.8789 12.2346 90.3987 12.418 90.9429 12.6749C91.0469 12.7238 91.163 12.7849 91.2915 12.8583C91.4199 12.9317 91.5483 13.0173 91.6767 13.1029C91.8051 13.1885 91.9213 13.2741 92.0375 13.3659C92.1537 13.4576 92.2393 13.531 92.3065 13.5921L91.426 14.7601Z" fill="#DF6954"/>
<path d="M96.633 17.8111C96.5352 17.701 96.3945 17.5543 96.2111 17.3831C96.0215 17.2118 95.7892 17.0406 95.5079 16.8694C95.3489 16.7716 95.1654 16.686 94.9636 16.6126C94.7618 16.5392 94.6212 16.4903 94.5356 16.4658L91.5026 21.5167L90.0411 20.6423L93.6489 14.6375C93.9914 14.7047 94.4011 14.8148 94.8841 14.9738C95.3611 15.1328 95.8564 15.3712 96.3701 15.677C96.4679 15.732 96.578 15.8054 96.6942 15.8971C96.8165 15.9888 96.9326 16.0806 97.0488 16.1784C97.165 16.2763 97.2751 16.3741 97.379 16.478C97.483 16.5759 97.5625 16.6615 97.6236 16.7288L96.633 17.8111Z" fill="#DF6954"/>
<path d="M96.5651 20.3433C96.9626 19.8358 97.3906 19.4505 97.8431 19.1815C98.2956 18.9185 98.7481 18.7534 99.1945 18.6984C99.647 18.6433 100.081 18.6739 100.509 18.8023C100.937 18.9307 101.316 19.1264 101.659 19.3894C102.454 20.0131 102.882 20.7469 102.943 21.5907C103.004 22.4346 102.643 23.3457 101.873 24.3302C101.818 24.4036 101.75 24.4831 101.671 24.5748C101.592 24.6665 101.524 24.7399 101.457 24.8133L97.6413 21.817C97.3111 22.3123 97.195 22.8015 97.2867 23.2846C97.3784 23.7676 97.7025 24.2262 98.2528 24.6604C98.5769 24.9172 98.8949 25.119 99.2128 25.2719C99.5308 25.4248 99.7876 25.5287 99.9955 25.5838L99.3107 26.819C99.2067 26.8006 99.0783 26.7578 98.9132 26.6967C98.7542 26.6355 98.5769 26.556 98.3812 26.4582C98.1917 26.3603 97.9899 26.2503 97.782 26.1219C97.5741 25.9935 97.3662 25.8528 97.1705 25.6938C96.663 25.2964 96.2777 24.8683 96.0209 24.4219C95.7641 23.9755 95.6173 23.523 95.5868 23.0644C95.5562 22.6058 95.6234 22.1472 95.7885 21.6886C95.9659 21.2238 96.2227 20.7774 96.5651 20.3433ZM100.919 22.7892C101.066 22.6058 101.176 22.4101 101.255 22.2022C101.335 21.9943 101.371 21.7925 101.365 21.5907C101.359 21.3889 101.316 21.1994 101.225 21.0159C101.139 20.8325 100.992 20.6613 100.79 20.5084C100.583 20.3433 100.375 20.2454 100.155 20.1965C99.9405 20.1537 99.7265 20.1537 99.5247 20.1904C99.3168 20.2332 99.1211 20.3127 98.9377 20.4289C98.7481 20.5451 98.583 20.6796 98.424 20.8325L100.919 22.7892Z" fill="#DF6954"/>
<path d="M107.006 35.1471C106.707 34.9575 106.364 34.6884 105.973 34.3521C105.582 34.0158 105.203 33.6306 104.842 33.1964C104.469 32.75 104.2 32.2975 104.041 31.8267C103.882 31.3619 103.827 30.8972 103.876 30.4325C103.925 29.9739 104.071 29.5213 104.322 29.0811C104.573 28.6408 104.927 28.2372 105.38 27.8581C105.826 27.4851 106.273 27.2038 106.731 27.0081C107.19 26.8124 107.636 26.7207 108.077 26.7146C108.517 26.7146 108.939 26.8063 109.336 27.002C109.734 27.1916 110.101 27.4912 110.443 27.8948C110.669 28.1699 110.841 28.4329 110.951 28.6958C111.061 28.9588 111.14 29.1973 111.189 29.4174L113.892 27.1488L115.2 28.2739L107.006 35.1471ZM106.536 29.1728C105.961 29.6559 105.625 30.1695 105.527 30.7138C105.429 31.2641 105.582 31.7777 105.985 32.2547C106.163 32.4626 106.316 32.6338 106.462 32.7623C106.603 32.8968 106.725 33.0007 106.823 33.0741L110.058 30.3652C110.039 30.1818 109.984 29.9677 109.893 29.7231C109.801 29.4785 109.666 29.2462 109.483 29.026C109.086 28.5491 108.633 28.3412 108.126 28.3901C107.618 28.4512 107.086 28.7081 106.536 29.1728Z" fill="#DF6954"/>
<path d="M110.781 34.5292C111.332 34.1929 111.864 33.9788 112.384 33.8871C112.897 33.7954 113.38 33.8015 113.821 33.9055C114.261 34.0094 114.664 34.1929 115.019 34.4619C115.374 34.731 115.667 35.0428 115.887 35.4159C116.419 36.2781 116.56 37.1158 116.322 37.9291C116.083 38.7424 115.429 39.47 114.365 40.1243C114.285 40.1733 114.194 40.2283 114.09 40.2833C113.986 40.3384 113.894 40.3873 113.808 40.4301L111.277 36.2903C110.794 36.6388 110.512 37.0547 110.433 37.5377C110.353 38.0208 110.494 38.565 110.861 39.1643C111.075 39.519 111.307 39.8186 111.546 40.0693C111.79 40.32 111.998 40.5096 112.17 40.6319L111.099 41.5491C111.008 41.4941 110.904 41.4085 110.769 41.2984C110.641 41.1822 110.5 41.0477 110.353 40.8887C110.207 40.7297 110.06 40.5524 109.907 40.3628C109.754 40.1671 109.613 39.9654 109.485 39.7513C109.149 39.201 108.935 38.669 108.849 38.1615C108.764 37.6539 108.788 37.177 108.916 36.7367C109.045 36.2964 109.271 35.8867 109.589 35.5198C109.913 35.1468 110.304 34.8166 110.781 34.5292ZM114.004 38.3449C114.206 38.2226 114.377 38.0758 114.524 37.9107C114.671 37.7456 114.774 37.5683 114.842 37.3787C114.909 37.1892 114.933 36.9935 114.909 36.7917C114.891 36.5899 114.811 36.382 114.683 36.1619C114.548 35.9356 114.383 35.7644 114.2 35.6482C114.016 35.532 113.814 35.4587 113.613 35.422C113.405 35.3914 113.197 35.3975 112.977 35.4403C112.757 35.4831 112.555 35.5504 112.359 35.636L114.004 38.3449Z" fill="#DF6954"/>
<path d="M116.38 44.6561C116.888 44.4666 117.395 44.3687 117.897 44.3626C118.398 44.3565 118.869 44.4421 119.303 44.6133C119.737 44.7845 120.122 45.0475 120.465 45.4021C120.807 45.7568 121.076 46.1971 121.272 46.723C121.511 47.3711 121.621 48.0316 121.602 48.6981L120.171 48.8387C120.184 48.6247 120.171 48.3923 120.135 48.1416C120.098 47.8909 120.037 47.6341 119.939 47.365C119.707 46.7413 119.334 46.3377 118.826 46.1604C118.312 45.9831 117.701 46.0197 116.992 46.2888C116.307 46.5456 115.818 46.9003 115.536 47.3528C115.249 47.8114 115.243 48.3984 115.512 49.1322C115.616 49.4074 115.738 49.6642 115.891 49.9088C116.044 50.1534 116.191 50.3552 116.343 50.5203L115.108 51.2358C114.955 51.0951 114.778 50.8566 114.576 50.5264C114.374 50.1962 114.203 49.8416 114.063 49.4624C113.842 48.8754 113.745 48.3251 113.763 47.8236C113.781 47.3222 113.897 46.8697 114.111 46.4661C114.325 46.0626 114.631 45.7079 115.023 45.4021C115.402 45.0964 115.86 44.8457 116.38 44.6561Z" fill="#DF6954"/>
<path d="M123.091 52.9845C123.214 53.5348 123.256 54.0118 123.201 54.4154C123.152 54.8189 123.024 55.1675 122.834 55.4427C122.639 55.7239 122.376 55.9502 122.046 56.1275C121.715 56.3049 121.342 56.4394 120.921 56.5372L116.579 57.534C116.463 57.2894 116.31 56.9225 116.114 56.4211C115.919 55.9196 115.747 55.3509 115.595 54.7028C115.497 54.2747 115.448 53.8711 115.448 53.4981C115.448 53.1251 115.509 52.7888 115.637 52.4953C115.76 52.2018 115.955 51.951 116.218 51.7431C116.475 51.5352 116.824 51.3824 117.252 51.2845C117.661 51.1928 118.028 51.1928 118.346 51.2845C118.664 51.3762 118.945 51.5413 119.19 51.7737C119.429 52.0061 119.63 52.2935 119.789 52.6359C119.948 52.9783 120.077 53.3452 120.168 53.7427C120.211 53.9262 120.242 54.1218 120.266 54.3236C120.291 54.5315 120.303 54.7517 120.297 54.9963L120.572 54.9351C120.762 54.8923 120.939 54.8251 121.104 54.7394C121.269 54.6538 121.404 54.5377 121.508 54.397C121.612 54.2503 121.685 54.079 121.709 53.8711C121.74 53.6693 121.722 53.4247 121.654 53.1373C121.569 52.7521 121.459 52.4097 121.33 52.0978C121.202 51.792 121.08 51.5475 120.957 51.3579L122.254 50.8442C122.376 51.0399 122.517 51.3273 122.682 51.7126C122.853 52.1039 122.987 52.5258 123.091 52.9845ZM116.94 54.5438C117.056 55.0574 117.172 55.4365 117.288 55.6873L119.123 55.2653C119.129 55.1675 119.129 55.0268 119.111 54.8495C119.098 54.6722 119.068 54.4765 119.019 54.2625C118.976 54.079 118.921 53.8956 118.848 53.7183C118.774 53.5348 118.689 53.3819 118.579 53.2474C118.468 53.1129 118.34 53.015 118.187 52.9539C118.034 52.8927 117.857 52.8866 117.655 52.9294C117.264 53.0211 117.019 53.2046 116.928 53.4859C116.842 53.7733 116.842 54.1218 116.94 54.5438Z" fill="#DF6954"/>
<path d="M120.277 58.5789C120.815 58.5239 121.329 58.5605 121.818 58.6828C122.307 58.8051 122.735 59.0069 123.115 59.2821C123.494 59.5573 123.799 59.9181 124.038 60.3461C124.276 60.7742 124.423 61.2695 124.478 61.826C124.545 62.5169 124.484 63.1835 124.289 63.8256L122.87 63.5993C122.937 63.3975 122.98 63.1651 123.017 62.9144C123.047 62.6637 123.053 62.3947 123.023 62.1134C122.962 61.4529 122.705 60.9699 122.252 60.6641C121.806 60.3584 121.201 60.2422 120.442 60.3155C119.715 60.3889 119.152 60.603 118.761 60.976C118.369 61.3429 118.21 61.9177 118.284 62.6882C118.314 62.9756 118.369 63.2569 118.449 63.532C118.535 63.8072 118.626 64.0396 118.73 64.2414L117.354 64.6144C117.244 64.4371 117.134 64.1619 117.018 63.795C116.908 63.422 116.835 63.0367 116.792 62.6393C116.731 62.0155 116.773 61.4591 116.92 60.9821C117.067 60.499 117.293 60.0954 117.605 59.7591C117.917 59.4228 118.302 59.1598 118.755 58.9641C119.225 58.7562 119.727 58.6278 120.277 58.5789Z" fill="#DF6954"/>
<path d="M124.646 68.3938C124.622 68.9563 124.536 69.4272 124.377 69.8063C124.218 70.1854 124.01 70.4851 123.747 70.7052C123.484 70.9253 123.172 71.0782 122.806 71.1577C122.445 71.2433 122.041 71.2739 121.613 71.2555L117.155 71.0721C117.106 70.8091 117.058 70.4117 117.002 69.8736C116.947 69.3416 116.929 68.7423 116.96 68.0758C116.978 67.6355 117.033 67.2319 117.137 66.8712C117.241 66.5104 117.388 66.2046 117.583 65.9539C117.779 65.7032 118.036 65.5136 118.342 65.3791C118.647 65.2446 119.02 65.1896 119.461 65.2079C119.883 65.2262 120.237 65.3241 120.519 65.4953C120.8 65.6726 121.026 65.905 121.203 66.1924C121.375 66.4798 121.491 66.81 121.558 67.183C121.625 67.556 121.65 67.9413 121.631 68.3448C121.625 68.5344 121.607 68.7301 121.57 68.9319C121.54 69.1337 121.491 69.3538 121.424 69.5862L121.705 69.5984C121.901 69.6045 122.09 69.5923 122.267 69.5495C122.445 69.5128 122.61 69.4333 122.75 69.3232C122.891 69.2132 123.001 69.0603 123.087 68.8707C123.166 68.6812 123.215 68.4427 123.227 68.1492C123.246 67.7578 123.227 67.3909 123.185 67.0607C123.142 66.7305 123.087 66.4615 123.02 66.2535L124.408 66.1007C124.475 66.3208 124.536 66.6388 124.591 67.0485C124.646 67.4826 124.671 67.9229 124.646 68.3938ZM118.305 68.2715C118.28 68.7973 118.293 69.1948 118.342 69.47L120.225 69.5495C120.256 69.4578 120.292 69.3232 120.329 69.1459C120.366 68.9686 120.384 68.7729 120.396 68.5589C120.402 68.3693 120.396 68.1797 120.378 67.9902C120.36 67.7945 120.311 67.6233 120.243 67.4643C120.176 67.3053 120.072 67.1769 119.944 67.0791C119.809 66.9812 119.644 66.9262 119.436 66.9201C119.033 66.9017 118.751 67.0179 118.586 67.2625C118.421 67.5071 118.323 67.8434 118.305 68.2715Z" fill="#DF6954"/>
<path d="M119.353 80.0305C118.778 79.9266 118.27 79.7553 117.83 79.5046C117.39 79.2539 117.029 78.9482 116.748 78.5874C116.466 78.2266 116.277 77.8108 116.167 77.3522C116.057 76.8935 116.051 76.3982 116.136 75.8846C116.228 75.3648 116.405 74.9123 116.662 74.5209C116.919 74.1296 117.243 73.8116 117.628 73.5609C118.013 73.3163 118.46 73.145 118.955 73.0594C119.457 72.9738 119.995 72.9799 120.563 73.0778C121.132 73.1756 121.64 73.353 122.074 73.6098C122.508 73.8605 122.869 74.1724 123.144 74.5393C123.419 74.9062 123.615 75.322 123.719 75.7745C123.823 76.227 123.835 76.7162 123.743 77.2237C123.651 77.7313 123.48 78.1838 123.223 78.5813C122.967 78.9787 122.649 79.3028 122.263 79.5474C121.878 79.792 121.438 79.9633 120.936 80.0489C120.459 80.1345 119.927 80.1284 119.353 80.0305ZM119.652 78.3122C120.374 78.4406 120.967 78.3856 121.444 78.1471C121.921 77.9086 122.202 77.5173 122.3 76.9608C122.398 76.4043 122.263 75.9396 121.896 75.5543C121.529 75.1691 120.985 74.9184 120.27 74.79C119.542 74.6616 118.937 74.7166 118.46 74.949C117.983 75.1813 117.689 75.5788 117.591 76.1292C117.494 76.6795 117.628 77.1504 118.001 77.5356C118.374 77.9208 118.925 78.1838 119.652 78.3122Z" fill="#DF6954"/>
</svg>
