<svg width="90" height="91" viewBox="0 0 90 91" fill="none" xmlns="http://www.w3.org/2000/svg">
<g clip-path="url(#clip0)">
<g clip-path="url(#clip1)">
<path d="M88.7143 75.9617H79.7143V42.8235C79.7143 42.5685 79.7143 42.5685 79.7143 42.3136C83.3143 41.5489 86.1429 38.49 86.1429 34.6664C86.1429 34.6664 86.1429 34.6664 86.1429 34.4114C86.1429 34.4114 86.1429 34.4114 86.1429 34.1565L79.7143 11.9794C79.7143 11.9794 79.7143 11.7245 79.4571 11.7245V7.64596C79.4571 5.35178 77.4 3.3125 75.0857 3.3125H14.6571C12.3429 3.3125 10.2857 5.35178 10.2857 7.64596V12.2343L3.85714 34.4114C3.85714 34.4114 3.85714 34.4114 3.85714 34.6664C3.85714 34.6664 3.85714 34.6664 3.85714 34.9213C3.85714 38.7449 6.68571 41.8038 10.2857 42.5685C10.2857 42.8235 10.2857 42.8235 10.2857 43.0784V76.2166H1.28571C0.514286 75.9617 0 76.4715 0 77.2362V86.6679C0 87.4326 0.514286 87.9424 1.28571 87.9424H88.7143C89.4857 87.9424 90 87.4326 90 86.6679V77.2362C90 76.4715 89.4857 75.9617 88.7143 75.9617ZM78.1714 40.0194C75.6 40.0194 73.5429 38.2351 73.0286 35.9409H83.3143C82.8 38.2351 80.7429 40.0194 78.1714 40.0194ZM12.6 13.7638H21.0857L17.2286 33.6467H6.94286L12.6 13.7638ZM55.0286 13.7638L56.8286 33.6467H46.2857V13.7638H55.0286ZM66.0857 13.7638L69.9429 33.6467H59.4L57.6 13.7638H66.0857ZM43.7143 33.3918H33.1714L34.9714 13.5089H43.7143V33.3918ZM30.6 33.3918H20.0571L23.9143 13.5089H32.6571L30.6 33.3918ZM30.3429 35.9409C29.8286 38.2351 27.7714 40.0194 25.2 40.0194C22.6286 40.0194 20.5714 38.2351 20.0571 35.9409H30.3429ZM43.4571 35.9409C42.9429 38.2351 40.8857 40.0194 38.3143 40.0194C35.7429 40.0194 33.6857 38.2351 33.1714 35.9409H43.4571ZM56.8286 35.9409C56.3143 38.2351 54.2571 40.0194 51.6857 40.0194C49.1143 40.0194 47.0571 38.2351 46.5429 35.9409H56.8286ZM70.2 35.9409C69.6857 38.2351 67.6286 40.0194 65.0571 40.0194C62.4857 40.0194 60.4286 38.2351 59.9143 35.9409H70.2ZM83.0571 33.3918H72.5143L68.6571 13.5089H77.1429L83.0571 33.3918ZM12.8571 7.64596C12.8571 6.62632 13.6286 5.86159 14.6571 5.86159H75.0857C76.1143 5.86159 76.8857 6.62632 76.8857 7.64596V11.2147H12.8571V7.64596ZM6.68571 35.9409H16.9714C16.4571 38.2351 14.4 40.0194 11.8286 40.0194C9.25714 40.0194 7.2 38.2351 6.68571 35.9409ZM12.8571 42.5685C15.1714 42.3136 17.2286 41.0391 18.5143 38.9998C19.8 41.0391 22.3714 42.5685 25.2 42.5685C28.0286 42.5685 30.3429 41.0391 31.8857 38.9998C33.1714 41.0391 35.7429 42.5685 38.5714 42.5685C41.4 42.5685 43.7143 41.0391 45.2571 38.9998C46.5429 41.0391 49.1143 42.5685 51.9429 42.5685C54.7714 42.5685 57.0857 41.0391 58.6286 38.9998C59.9143 41.0391 62.4857 42.5685 65.3143 42.5685C68.1429 42.5685 70.4571 41.0391 72 38.9998C73.2857 40.7842 75.3429 42.3136 77.6571 42.5685V42.8235V75.9617H39.8571V49.4511C39.8571 48.6864 39.3429 48.1766 38.5714 48.1766H20.0571C19.2857 48.1766 18.7714 48.6864 18.7714 49.4511V75.9617H12.8571V42.8235V42.5685ZM37.2857 75.9617H21.3429V50.7256H37.2857V75.9617ZM87.4286 85.1384H2.57143V78.2559H20.0571H38.5714H87.4286V85.1384Z" fill="white"/>
<path d="M46.0279 70.0985H69.9422C70.7136 70.0985 71.2279 69.5886 71.2279 68.8239V49.4508C71.2279 48.6861 70.7136 48.1763 69.9422 48.1763H46.0279C45.2565 48.1763 44.7422 48.6861 44.7422 49.4508V68.8239C44.7422 69.5886 45.2565 70.0985 46.0279 70.0985ZM53.2279 67.5494L68.6565 55.0588V67.5494H53.2279ZM68.6565 51.745L49.1136 67.5494H47.3136V63.9806L63.5136 50.7254H68.6565V51.745ZM59.6565 50.7254L47.3136 60.6668V50.7254H59.6565Z" fill="white"/>
<path d="M34.7145 66.5302C35.4859 66.5302 36.0002 66.0204 36.0002 65.2557V61.432C36.0002 60.6673 35.4859 60.1575 34.7145 60.1575C33.9431 60.1575 33.4288 60.6673 33.4288 61.432V65.2557C33.4288 66.0204 33.9431 66.5302 34.7145 66.5302Z" fill="white"/>
</g>
</g>
<defs>
<clipPath id="clip0">
<rect width="90" height="90" fill="white" transform="translate(0 0.5)"/>
</clipPath>
<clipPath id="clip1">
<rect width="90" height="84.375" fill="white" transform="translate(0 3.3125)"/>
</clipPath>
</defs>
</svg>
