<?xml version="1.0" encoding="UTF-8" standalone="no"?>
<!DOCTYPE svg PUBLIC "-//W3C//DTD SVG 1.1//EN" "http://www.w3.org/Graphics/SVG/1.1/DTD/svg11.dtd">
<svg width="100%" height="100%" viewBox="0 0 90 90" version="1.1" xmlns="http://www.w3.org/2000/svg" xmlns:xlink="http://www.w3.org/1999/xlink" xml:space="preserve" xmlns:serif="http://www.serif.com/" style="fill-rule:evenodd;clip-rule:evenodd;stroke-linejoin:round;stroke-miterlimit:2;">
    <g>
        <rect x="39.905" y="31.914" width="10.206" height="43.758"/>
        <path d="M37.225,16.74C39.961,19.476 44.677,31.914 44.677,31.914C44.677,31.914 32.239,27.198 29.485,24.462C26.731,21.726 26.263,17.766 28.387,15.642C30.511,13.518 34.471,13.986 37.225,16.74Z"/>
        <path d="M52.776,16.74C50.04,19.476 45.324,31.914 45.324,31.914C45.324,31.914 57.762,27.198 60.516,24.462C63.27,21.726 63.738,17.766 61.614,15.642C59.49,13.518 55.53,13.986 52.776,16.74Z"/>
        <path d="M71.856,30.402L53.64,30.402C56.563,29.242 59.304,27.666 61.776,25.722C65.214,22.284 65.718,17.19 62.874,14.364C60.03,11.538 54.954,12.024 51.516,15.462C49.464,17.514 46.656,23.814 45,27.846C43.344,23.814 40.536,17.514 38.484,15.462C35.046,12.024 29.952,11.52 27.126,14.4C24.3,17.28 24.786,22.338 28.224,25.758C30.696,27.702 33.436,29.278 36.36,30.438L18.144,30.438C17.57,30.438 17.002,30.551 16.473,30.771C15.943,30.991 15.462,31.313 15.057,31.72C14.653,32.126 14.332,32.609 14.114,33.139C13.896,33.67 13.786,34.238 13.788,34.812L13.788,43.614C13.79,43.999 13.868,44.38 14.018,44.735C14.168,45.09 14.386,45.412 14.66,45.683C14.934,45.954 15.259,46.168 15.616,46.313C15.973,46.458 16.355,46.532 16.74,46.53L17.766,46.53L17.766,68.976C17.785,71.22 18.691,73.365 20.286,74.943C21.881,76.521 24.036,77.405 26.28,77.4L63.72,77.4C64.837,77.402 65.944,77.184 66.977,76.758C68.01,76.332 68.948,75.707 69.739,74.918C70.53,74.128 71.157,73.191 71.585,72.159C72.013,71.127 72.234,70.021 72.234,68.904L72.234,46.53L73.26,46.53C73.648,46.532 74.033,46.457 74.392,46.31C74.752,46.162 75.078,45.945 75.353,45.67C75.627,45.396 75.845,45.069 75.992,44.71C76.14,44.351 76.214,43.966 76.212,43.578L76.212,34.776C76.214,34.202 76.103,33.634 75.885,33.103C75.668,32.572 75.347,32.09 74.942,31.684C74.538,31.277 74.057,30.955 73.527,30.735C72.997,30.515 72.429,30.402 71.856,30.402ZM40.806,73.8L40.806,46.53L49.194,46.53L49.194,73.8L40.806,73.8ZM40.806,42.858L40.806,33.858L49.194,33.858L49.194,42.858L40.806,42.858ZM54,18C55.998,16.002 58.878,15.498 60.282,16.902C61.686,18.306 61.182,21.186 59.184,23.184C57.816,24.552 52.848,26.784 48.492,28.692C50.4,24.336 52.704,19.368 54,18ZM29.664,16.902C30.257,16.394 31.027,16.141 31.806,16.2C33.383,16.24 34.884,16.884 36,18C37.35,19.368 39.69,24.336 41.508,28.692C37.152,26.892 32.184,24.552 30.816,23.184C28.8,21.186 28.26,18.306 29.664,16.902ZM17.388,42.93L17.388,34.776C17.386,34.675 17.403,34.575 17.44,34.481C17.477,34.387 17.532,34.302 17.603,34.229C17.673,34.157 17.757,34.1 17.85,34.061C17.943,34.022 18.043,34.002 18.144,34.002L39.006,34.002L39.006,43.002L17.406,43.002L17.388,42.93ZM21.366,68.976L21.366,46.53L39.006,46.53L39.006,73.8L26.28,73.8C24.991,73.805 23.752,73.301 22.831,72.397C21.912,71.494 21.385,70.265 21.366,68.976ZM68.634,68.976C68.615,70.265 68.088,71.494 67.168,72.397C66.248,73.301 65.009,73.805 63.72,73.8L50.994,73.8L50.994,46.53L68.634,46.53L68.634,68.976ZM72.612,42.93L51.012,42.93L51.012,33.93L71.856,33.93C71.957,33.93 72.057,33.95 72.149,33.989C72.242,34.028 72.327,34.085 72.397,34.157C72.467,34.23 72.523,34.315 72.56,34.409C72.597,34.503 72.614,34.603 72.612,34.704L72.612,42.93Z"/>
    </g>
</svg>
