<?xml version="1.0" encoding="UTF-8" standalone="no"?>
<!DOCTYPE svg PUBLIC "-//W3C//DTD SVG 1.1//EN" "http://www.w3.org/Graphics/SVG/1.1/DTD/svg11.dtd">
<svg width="100%" height="100%" viewBox="0 0 90 90" version="1.1" xmlns="http://www.w3.org/2000/svg" xmlns:xlink="http://www.w3.org/1999/xlink" xml:space="preserve" xmlns:serif="http://www.serif.com/" style="fill-rule:evenodd;clip-rule:evenodd;stroke-linejoin:round;stroke-miterlimit:2;">
    <path d="M49.861,72.198L40.141,72.198L40.141,47.394L44.965,42.606L49.861,47.394L49.861,72.198Z" />
    <path d="M49.86,37.764L45,40.104L40.086,37.764L40.086,26.028L49.86,26.028L49.86,37.764Z" />
    <path d="M80.622,34.704C79.92,22.932 71.874,14.058 61.92,14.058C58.244,14.155 54.678,15.334 51.669,17.447C48.659,19.56 46.34,22.514 45,25.938C43.66,22.514 41.34,19.56 38.33,17.447C35.321,15.334 31.756,14.155 28.08,14.058C18.126,14.058 10.08,22.932 9.378,34.704C7.956,58.104 42.732,75.06 44.226,75.762C44.467,75.877 44.732,75.937 45,75.937C45.267,75.937 45.532,75.877 45.774,75.762C47.268,75.06 82.044,58.068 80.622,34.704ZM41.544,40.374C37.116,40.824 32.094,41.04 30.51,40.374C29.313,39.947 28.305,39.112 27.663,38.016C27.021,36.92 26.786,35.632 27,34.38C27.118,33.91 27.342,33.473 27.654,33.102C27.965,32.731 28.357,32.435 28.8,32.238C29.357,31.955 29.975,31.813 30.6,31.824C31.217,31.828 31.828,31.95 32.4,32.184C33.948,32.85 38.178,36.882 41.544,40.374ZM57.744,32.184C58.308,31.923 58.922,31.787 59.544,31.787C60.165,31.787 60.78,31.923 61.344,32.184C61.765,32.404 62.133,32.715 62.419,33.095C62.706,33.475 62.904,33.914 63,34.38C63.228,35.638 63.002,36.937 62.363,38.044C61.723,39.152 60.712,39.996 59.508,40.428C57.924,41.04 52.902,40.824 48.474,40.428C51.822,36.882 56.052,32.85 57.762,32.184L57.744,32.184ZM45,38.772C43.938,37.656 42.552,36.216 41.04,34.758L41.04,26.1L41.238,26.442C41.515,27.217 42.026,27.888 42.699,28.362C43.373,28.836 44.176,29.09 45,29.09C45.823,29.09 46.627,28.836 47.3,28.362C47.974,27.888 48.484,27.217 48.762,26.442L48.96,26.1L48.96,34.758C47.448,36.216 46.062,37.656 45,38.772ZM12.978,34.92C13.572,25.092 20.07,17.658 28.08,17.658C30.245,17.69 32.375,18.214 34.308,19.19C36.242,20.166 37.928,21.569 39.24,23.292L39.24,33.066C37.572,31.362 35.654,29.924 33.552,28.8C32.517,28.378 31.405,28.179 30.289,28.216C29.172,28.253 28.076,28.526 27.072,29.016C26.191,29.455 25.414,30.077 24.793,30.841C24.173,31.605 23.722,32.492 23.472,33.444C23.021,35.557 23.346,37.762 24.387,39.656C25.428,41.55 27.116,43.006 29.142,43.758C30.853,44.257 32.635,44.469 34.416,44.388C36.738,44.388 39.294,44.208 41.4,43.992L34.362,51.408C34.026,51.745 33.838,52.201 33.838,52.677C33.838,53.152 34.026,53.609 34.362,53.946C34.698,54.261 35.143,54.435 35.604,54.432C35.849,54.433 36.092,54.385 36.318,54.289C36.544,54.193 36.748,54.051 36.918,53.874L39.132,51.534L39.132,68.85C29.412,62.874 12.06,50.076 12.978,34.92ZM45,72.126C44.19,71.712 42.804,70.974 41.04,69.948L41.04,49.662L45,45.504L48.96,49.662L48.96,69.948C47.196,70.974 45.81,71.712 45,72.126ZM50.76,68.868L50.76,51.552L52.974,53.892C53.143,54.07 53.347,54.211 53.573,54.307C53.799,54.403 54.042,54.451 54.288,54.45C54.749,54.453 55.193,54.279 55.53,53.964C55.865,53.627 56.053,53.17 56.053,52.695C56.053,52.219 55.865,51.763 55.53,51.426L48.6,44.01C50.706,44.226 53.262,44.406 55.584,44.406C57.364,44.487 59.146,44.275 60.858,43.776C62.884,43.024 64.571,41.568 65.612,39.674C66.653,37.78 66.978,35.575 66.528,33.462C66.277,32.51 65.827,31.622 65.206,30.859C64.585,30.095 63.808,29.473 62.928,29.034C61.924,28.544 60.827,28.271 59.711,28.234C58.594,28.197 57.482,28.396 56.448,28.818C54.347,29.936 52.429,31.369 50.76,33.066L50.76,23.292C52.071,21.569 53.758,20.166 55.691,19.19C57.624,18.214 59.754,17.69 61.92,17.658C69.93,17.658 76.428,25.092 77.022,34.92C77.94,50.076 60.588,62.874 50.76,68.868Z" />
</svg>
