<svg width="16" height="16" viewBox="0 0 16 16" fill="none" xmlns="http://www.w3.org/2000/svg">
<path id="Vector" fill-rule="evenodd" clip-rule="evenodd" d="M13.998 15.9981H1.99902C0.894023 15.9981 -0.000976562 15.1021 -0.000976562 13.9981V1.99807C-0.000976562 0.89407 0.894023 -0.00292969 1.99902 -0.00292969H13.998C15.104 -0.00292969 15.998 0.89407 15.998 1.99807V13.9981C15.998 15.1021 15.104 15.9981 13.998 15.9981ZM11.177 5.09307C11.339 4.93707 12.976 4.99407 12.976 4.99407L12.964 3.01607C12.26 3.01607 12.467 2.98107 11.733 2.98107C11.017 2.98107 10.604 3.09507 10.136 3.32307C9.66802 3.55207 9.45502 3.83207 9.28102 4.19507C9.10702 4.55807 9.02002 5.00007 9.02002 5.73907V5.99607H8.00902L7.97702 7.95607H8.98802V12.9921H10.987V7.95607H12.811L13.056 5.99607H11.027C11.027 5.99607 10.862 5.39807 11.177 5.09307Z" fill="#06255B"/>
</svg>
