<svg width="130" height="130" viewBox="0 0 130 130" fill="none" xmlns="http://www.w3.org/2000/svg">
<path d="M20.1512 36.0153C20.567 35.4405 20.7688 34.9574 20.7627 34.5539C20.7566 34.1503 20.5793 33.8262 20.2246 33.5694C20.0167 33.4165 19.8027 33.3309 19.5825 33.3064C19.3685 33.2881 19.1361 33.3125 18.8977 33.392C18.6592 33.4654 18.3962 33.5877 18.1211 33.7467C17.8459 33.9057 17.5463 34.1014 17.2283 34.3337C16.8981 34.56 16.5679 34.7618 16.2316 34.9513C15.8953 35.1409 15.5528 35.2693 15.2043 35.3488C14.8557 35.4222 14.5011 35.4283 14.1342 35.3671C13.7734 35.306 13.4004 35.1348 13.0213 34.8596C12.2263 34.2848 11.8044 33.5633 11.7494 32.6888C11.6943 31.8144 12.0062 30.9094 12.691 29.9616C13.0885 29.4112 13.4982 28.971 13.9263 28.6346C14.3543 28.2983 14.7334 28.0598 15.0514 27.9192L15.987 29.344C15.6201 29.5152 15.2715 29.7414 14.9413 30.0227C14.6111 30.304 14.3176 30.622 14.0547 30.9889C13.7428 31.4169 13.5899 31.8205 13.596 32.1874C13.6022 32.5543 13.7612 32.8539 14.0791 33.0863C14.2748 33.2269 14.4705 33.3064 14.6662 33.3248C14.8618 33.3431 15.0697 33.3187 15.2838 33.2514C15.4978 33.1841 15.724 33.0863 15.9625 32.9518C16.201 32.8233 16.4456 32.6705 16.6963 32.4931C17.1488 32.1874 17.5646 31.9306 17.956 31.7227C18.3473 31.5086 18.7264 31.368 19.1056 31.3007C19.4847 31.2335 19.8577 31.2457 20.2368 31.3374C20.6098 31.4291 21.0073 31.6248 21.4231 31.9245C22.2181 32.4993 22.6278 33.2208 22.6583 34.0952C22.6889 34.9697 22.3159 35.9481 21.5332 37.0243C21.2702 37.3851 21.0073 37.703 20.7444 37.966C20.4814 38.235 20.2307 38.4552 19.9983 38.6386C19.766 38.8221 19.552 38.9688 19.3563 39.0911C19.1606 39.2073 19.0016 39.2929 18.8671 39.3541L17.9009 37.9476C18.1945 37.8131 18.543 37.593 18.9466 37.2995C19.3502 36.9876 19.7538 36.5657 20.1512 36.0153Z" fill="#DF6954"/>
<path d="M20.505 24.8618C20.9391 24.4154 21.3672 24.0974 21.7769 23.9017C22.1866 23.706 22.5779 23.6143 22.9571 23.6327C23.3362 23.6449 23.7092 23.755 24.07 23.9568C24.4308 24.1585 24.7854 24.4276 25.1279 24.7639L28.6562 28.225C28.4972 28.4757 28.2404 28.8426 27.8918 29.3257C27.5433 29.8087 27.1091 30.3102 26.5954 30.836C26.253 31.1846 25.9045 31.472 25.5559 31.6982C25.2074 31.9245 24.8527 32.0651 24.5041 32.1202C24.1556 32.1813 23.807 32.1507 23.4585 32.0285C23.1099 31.9123 22.7614 31.6799 22.4067 31.3375C22.0704 31.0073 21.8564 30.6709 21.7524 30.3102C21.6485 29.9555 21.6362 29.5947 21.7096 29.2278C21.783 28.8609 21.9359 28.5063 22.156 28.1455C22.3823 27.7908 22.6513 27.4545 22.9632 27.1365C23.1099 26.9898 23.2689 26.843 23.4524 26.6962C23.6297 26.5495 23.8315 26.4088 24.0577 26.2682L23.8376 26.0481C23.6786 25.8952 23.5135 25.7668 23.3362 25.6689C23.1589 25.565 22.9693 25.5099 22.7736 25.4977C22.5779 25.4855 22.37 25.5283 22.1621 25.62C21.9542 25.7117 21.7341 25.8768 21.5078 26.1031C21.2021 26.415 20.9453 26.7207 20.7312 27.0264C20.5233 27.3322 20.3643 27.5951 20.2665 27.8153L19.0129 26.9103C19.123 26.684 19.3065 26.3721 19.5633 25.9869C19.8262 25.6139 20.1381 25.2348 20.505 24.8618ZM25.6354 29.6803C26.0451 29.2645 26.3325 28.9282 26.4976 28.6714L25.0056 27.2099C24.9077 27.2649 24.7793 27.3505 24.6203 27.4667C24.4613 27.589 24.2962 27.7297 24.125 27.9009C23.9783 28.0476 23.8437 28.2127 23.7153 28.384C23.5869 28.5552 23.4952 28.7386 23.434 28.916C23.3729 29.0994 23.3606 29.2767 23.3973 29.4541C23.434 29.6314 23.5319 29.8026 23.697 29.9616C24.0149 30.2735 24.3329 30.3896 24.657 30.3102C24.9689 30.2307 25.2991 30.0228 25.6354 29.6803Z" fill="#DF6954"/>
<path d="M25.5278 20.7405C25.7601 20.4409 26.0781 20.0801 26.4939 19.6581C26.9097 19.2362 27.3989 18.8143 27.9676 18.3985C28.5057 18.001 29.0072 17.7442 29.4719 17.628C29.9427 17.5118 30.3769 17.5057 30.7866 17.6096C31.1963 17.7136 31.5815 17.9215 31.9423 18.2334C32.3031 18.5391 32.6516 18.9182 32.9757 19.3585L35.6969 23.0519L34.1804 24.171L31.6366 20.716C31.3797 20.3675 31.1351 20.0801 30.9089 19.8722C30.6826 19.6581 30.4564 19.5114 30.2363 19.438C30.0161 19.3585 29.7899 19.3524 29.5575 19.4135C29.3251 19.4747 29.0805 19.6031 28.8176 19.7927C28.6219 19.9333 28.4324 20.0923 28.2428 20.2758C28.0532 20.4531 27.9126 20.5876 27.827 20.6793L31.7344 25.9749L30.2118 27.0939L25.5278 20.7405Z" fill="#DF6954"/>
<path d="M38.5343 19.939C38.9746 19.7066 39.2681 19.4804 39.4149 19.2725C39.5616 19.0584 39.5677 18.8261 39.4271 18.5692C39.2987 18.3308 39.0908 18.1901 38.7911 18.1473C38.4915 18.1045 38.0451 18.1228 37.452 18.2023C37.0912 18.2513 36.7488 18.2818 36.4308 18.2941C36.1128 18.3063 35.8193 18.2757 35.5441 18.2085C35.2751 18.1412 35.0244 18.0189 34.792 17.8416C34.5596 17.6642 34.3578 17.4074 34.1805 17.065C33.832 16.4046 33.7953 15.7503 34.0827 15.1143C34.3701 14.4784 34.9265 13.9341 35.7643 13.4938C36.1862 13.2676 36.6142 13.0964 37.0423 12.968C37.4703 12.8396 37.8005 12.7662 38.0329 12.7356L38.4426 14.246C38.2163 14.2582 37.9412 14.3071 37.6171 14.3927C37.293 14.4722 36.9444 14.6129 36.5714 14.8147C36.229 14.992 35.9844 15.1999 35.8376 15.4262C35.6848 15.6524 35.6725 15.8848 35.801 16.1233C35.8621 16.2456 35.9416 16.3373 36.0333 16.4046C36.125 16.4718 36.2412 16.5207 36.3819 16.5452C36.5225 16.5697 36.6998 16.5758 36.9078 16.5697C37.1157 16.5574 37.3603 16.533 37.6415 16.4902C38.1124 16.429 38.5282 16.3923 38.8768 16.3923C39.2253 16.3862 39.5433 16.429 39.8123 16.5146C40.0875 16.6002 40.326 16.7348 40.5278 16.9182C40.7296 17.1017 40.9191 17.3585 41.0903 17.6826C41.4572 18.3736 41.4756 19.0279 41.1515 19.6516C40.8274 20.2753 40.1915 20.8379 39.2498 21.3393C38.6138 21.6756 38.0757 21.8896 37.6354 21.9875C37.1952 22.0853 36.8772 22.1465 36.6876 22.1648L36.2412 20.6177C36.5409 20.5872 36.8894 20.526 37.2808 20.4343C37.6721 20.3426 38.094 20.1775 38.5343 19.939Z" fill="#DF6954"/>
<path d="M46.5817 17.7625L43.3958 6.41325L45.1263 5.60608L46.2209 9.49516C46.4044 9.36674 46.6184 9.24445 46.8691 9.11603C47.1198 8.99374 47.3766 8.8959 47.6335 8.82252C48.2633 8.64519 48.8136 8.58404 49.2784 8.64519C49.7431 8.70634 50.1467 8.85309 50.483 9.09769C50.8193 9.34229 51.1067 9.67249 51.333 10.0822C51.5592 10.4919 51.7549 10.9689 51.9017 11.507L53.143 15.9219L51.3269 16.4295L50.165 12.3019C50.0489 11.88 49.9204 11.5314 49.7798 11.2501C49.6392 10.9688 49.4863 10.7548 49.309 10.6081C49.1316 10.4552 48.9237 10.3696 48.6913 10.3451C48.459 10.3207 48.1838 10.3512 47.8719 10.4369C47.6335 10.5041 47.395 10.5958 47.1565 10.7181C46.918 10.8404 46.7468 10.9322 46.6367 11.0117L48.3917 17.2611L46.5817 17.7625Z" fill="#DF6954"/>
<path d="M61.5679 14.601C61.2193 14.7355 60.7546 14.8823 60.192 15.0412C59.6233 15.2002 58.9935 15.3225 58.3025 15.3959C57.6543 15.4693 57.0978 15.4326 56.6331 15.2981C56.1745 15.1574 55.7954 14.9434 55.4957 14.6377C55.1961 14.338 54.9637 13.9589 54.7986 13.5125C54.6335 13.0661 54.5235 12.5708 54.4623 12.0205L53.9609 7.47709L55.8382 7.26918L56.3029 11.519C56.4007 12.3874 56.5964 12.9927 56.8899 13.3352C57.1835 13.6776 57.6482 13.8183 58.278 13.751C58.5043 13.7265 58.7428 13.6898 58.9935 13.6409C59.2442 13.592 59.4276 13.5431 59.5499 13.5003L58.8284 6.94509L60.7057 6.73718L61.5679 14.601Z" fill="#DF6954"/>
<path d="M65.896 4.37672C65.8899 4.73139 65.7737 5.01267 65.5413 5.21446C65.309 5.42237 65.0399 5.52021 64.728 5.52021C64.404 5.51409 64.1288 5.41014 63.9025 5.19612C63.6763 4.98821 63.5662 4.70081 63.5662 4.35226C63.5723 3.98537 63.6885 3.70408 63.9209 3.49618C64.1532 3.29438 64.4284 3.19043 64.7525 3.19654C65.0644 3.20266 65.3334 3.30661 65.5597 3.52063C65.792 3.72243 65.9021 4.00983 65.896 4.37672ZM65.5719 14.9127L63.6824 14.8883L63.7741 6.73096L65.6636 6.75542L65.5719 14.9127Z" fill="#DF6954"/>
<path d="M70.5739 15.4387C70.0175 15.3775 69.5588 15.2736 69.2042 15.1207C68.8495 14.974 68.5682 14.7844 68.3725 14.552C68.1769 14.3197 68.0484 14.0445 67.9873 13.7204C67.9261 13.3963 67.92 13.0355 67.9567 12.6258L68.825 3.27613L70.7329 3.1416L69.8707 12.4424C69.8462 12.6686 69.8524 12.8643 69.8707 13.0233C69.8952 13.1823 69.9441 13.3168 70.0297 13.4391C70.1153 13.5614 70.2315 13.6531 70.3844 13.7204C70.5372 13.7938 70.739 13.8549 70.9836 13.91L70.5739 15.4387Z" fill="#DF6954"/>
<path d="M72.4768 11.3722C72.6297 10.669 72.8681 10.0819 73.1922 9.59885C73.5163 9.11577 73.8893 8.73665 74.3113 8.46148C74.7332 8.1863 75.1857 8.00897 75.6749 7.92948C76.158 7.84999 76.6349 7.86221 77.1058 7.96617C78.2004 8.20465 78.9831 8.73665 79.4478 9.54993C79.9125 10.3632 79.9981 11.4456 79.7046 12.7969C79.6802 12.9009 79.6557 13.011 79.6251 13.1394C79.5946 13.2678 79.5579 13.3779 79.5273 13.4757L74.2746 12.3261C74.1829 12.9743 74.299 13.5246 74.6292 13.9588C74.9533 14.3991 75.4976 14.6987 76.2619 14.8699C76.7083 14.9677 77.1241 15.0167 77.5155 15.0167C77.9068 15.0167 78.2126 14.9922 78.4511 14.9494L78.3655 16.5087C78.2554 16.5393 78.1025 16.5576 77.913 16.576C77.7234 16.5943 77.5094 16.6004 77.2709 16.5943C77.0324 16.5882 76.7756 16.576 76.5065 16.5454C76.2375 16.5209 75.9623 16.472 75.6871 16.417C74.9839 16.2641 74.403 16.0256 73.926 15.7015C73.4552 15.3774 73.0883 14.9983 72.8376 14.5519C72.5807 14.1055 72.4279 13.6163 72.379 13.0782C72.3056 12.5401 72.3423 11.9714 72.4768 11.3722ZM78.0047 11.7207C78.0597 11.47 78.0781 11.2193 78.0597 10.9747C78.0353 10.7301 77.9802 10.51 77.8763 10.3143C77.7784 10.1186 77.6378 9.9474 77.4604 9.80676C77.2831 9.66611 77.0569 9.56827 76.7817 9.50713C76.4943 9.44598 76.2375 9.44598 75.999 9.50101C75.7605 9.56216 75.5526 9.66 75.363 9.80064C75.1796 9.94128 75.0206 10.1125 74.8922 10.3204C74.7638 10.5283 74.6537 10.7423 74.5742 10.9686L78.0047 11.7207Z" fill="#DF6954"/>
<path d="M89.8616 21.3211C89.4764 21.2599 89.0055 21.1498 88.4552 20.9909C87.9048 20.8319 87.3484 20.6117 86.7858 20.3427C86.2049 20.0614 85.7279 19.7251 85.3549 19.3276C84.9819 18.9301 84.7128 18.4837 84.5477 17.9946C84.3826 17.5054 84.3276 16.9856 84.3826 16.4291C84.4377 15.8727 84.6089 15.2979 84.8902 14.7108C85.1715 14.1299 85.4955 13.6407 85.8686 13.2371C86.2416 12.8336 86.6513 12.5339 87.0915 12.3321C87.5318 12.1303 88.0027 12.0325 88.4918 12.0447C88.981 12.057 89.4886 12.1854 90.0145 12.4422C90.3691 12.6134 90.6626 12.8091 90.895 13.0231C91.1274 13.2371 91.3169 13.4451 91.4637 13.6407L93.1636 10.1124L94.9981 10.6505L89.8616 21.3211ZM86.6574 15.4997C86.2966 16.2518 86.1926 16.9244 86.3394 17.5176C86.4923 18.1169 86.8775 18.5632 87.5074 18.869C87.7764 18.9974 88.0149 19.1014 88.2228 19.1686C88.4246 19.2359 88.5958 19.2848 88.7303 19.3154L90.7605 15.0961C90.6626 14.9187 90.5098 14.7292 90.3019 14.5213C90.0939 14.3134 89.8555 14.1422 89.5742 14.0076C88.9566 13.708 88.4001 13.7019 87.9109 13.9893C87.4217 14.2767 86.9998 14.7781 86.6574 15.4997Z" fill="#DF6954"/>
<path d="M93.4098 19.0038C93.8256 18.4168 94.272 17.9643 94.7612 17.6463C95.2504 17.3283 95.7396 17.1204 96.2349 17.0348C96.7302 16.9431 97.2194 16.9553 97.6964 17.0715C98.1733 17.1877 98.6136 17.3834 98.9988 17.6585C99.9161 18.3067 100.43 19.0955 100.546 20.025C100.662 20.9545 100.32 21.9879 99.5247 23.1191C99.4636 23.2048 99.3963 23.2965 99.3168 23.4004C99.2373 23.5044 99.1639 23.5961 99.0967 23.6756L94.7001 20.5753C94.3637 21.1379 94.2598 21.6883 94.3943 22.2203C94.5227 22.7523 94.908 23.2414 95.5439 23.6878C95.9169 23.9508 96.2838 24.1587 96.6446 24.3116C96.9993 24.4644 97.2989 24.5623 97.5313 24.6112L96.8464 26.0176C96.7302 25.9993 96.5835 25.9626 96.4 25.9075C96.2166 25.8464 96.0209 25.773 95.8008 25.6752C95.5806 25.5773 95.3544 25.4673 95.1159 25.3327C94.8774 25.2043 94.645 25.0576 94.4127 24.8925C93.8256 24.4767 93.3793 24.0303 93.0674 23.5533C92.7555 23.0763 92.5721 22.581 92.5048 22.0735C92.4376 21.566 92.4926 21.0523 92.6516 20.5387C92.8106 20.025 93.0552 19.5052 93.4098 19.0038ZM98.3751 21.462C98.528 21.248 98.6381 21.0278 98.7114 20.7955C98.7848 20.5631 98.8154 20.3369 98.797 20.1167C98.7787 19.8966 98.7176 19.6887 98.6075 19.4869C98.4974 19.2912 98.3323 19.1078 98.0999 18.9488C97.8615 18.7837 97.623 18.6797 97.3784 18.643C97.1399 18.6063 96.9014 18.6186 96.6813 18.6736C96.455 18.7286 96.241 18.8326 96.0453 18.9671C95.8436 19.1078 95.6662 19.2668 95.5011 19.4441L98.3751 21.462Z" fill="#DF6954"/>
<path d="M108.77 32.6827C108.305 33.0985 107.822 33.4165 107.327 33.6427C106.831 33.869 106.342 33.9913 105.865 34.0157C105.382 34.0402 104.918 33.9546 104.459 33.7528C104 33.551 103.584 33.2391 103.205 32.8111C102.948 32.5237 102.747 32.2302 102.606 31.9244C102.459 31.6187 102.361 31.3558 102.306 31.1234L99.94 33.2269L98.6864 31.8205L106.734 24.6538C107.064 24.8739 107.455 25.1613 107.902 25.516C108.348 25.8707 108.776 26.2865 109.192 26.7512C109.62 27.2343 109.932 27.7296 110.121 28.2433C110.311 28.7569 110.39 29.2706 110.354 29.7842C110.317 30.2979 110.164 30.7993 109.901 31.2946C109.638 31.7838 109.259 32.2485 108.77 32.6827ZM107.461 31.2579C108.091 30.6953 108.452 30.1205 108.55 29.5274C108.648 28.9342 108.415 28.3228 107.853 27.6929C107.736 27.5584 107.608 27.43 107.467 27.2955C107.327 27.1609 107.174 27.0447 107.015 26.9408L103.529 30.0411C103.554 30.2428 103.621 30.4752 103.731 30.7504C103.841 31.0194 104 31.2763 104.208 31.5086C104.667 32.0223 105.174 32.2424 105.731 32.1629C106.299 32.0834 106.874 31.7838 107.461 31.2579Z" fill="#DF6954"/>
<path d="M115.106 34.4621C115.442 34.988 115.656 35.4711 115.754 35.9174C115.852 36.3577 115.852 36.7674 115.748 37.1282C115.65 37.4951 115.46 37.8314 115.179 38.1372C114.898 38.4429 114.561 38.7242 114.158 38.981L109.987 41.6349C109.779 41.4209 109.48 41.0907 109.088 40.6443C108.697 40.1979 108.306 39.6598 107.908 39.036C107.645 38.6263 107.444 38.2228 107.309 37.8253C107.168 37.4339 107.113 37.0609 107.132 36.7063C107.156 36.3516 107.26 36.0214 107.456 35.7034C107.651 35.3916 107.951 35.098 108.367 34.8412C108.764 34.5905 109.144 34.456 109.517 34.4376C109.883 34.4193 110.238 34.4865 110.581 34.6394C110.917 34.7923 111.235 35.0185 111.528 35.3182C111.822 35.6178 112.091 35.9541 112.329 36.3333C112.439 36.5106 112.55 36.7001 112.647 36.9081C112.751 37.116 112.843 37.3422 112.929 37.599L113.192 37.4339C113.375 37.3178 113.534 37.1832 113.675 37.0304C113.815 36.8836 113.913 36.7124 113.968 36.5167C114.023 36.3271 114.035 36.1192 113.987 35.893C113.944 35.6667 113.834 35.4221 113.662 35.147C113.43 34.7801 113.186 34.456 112.941 34.1808C112.69 33.9056 112.47 33.6977 112.28 33.551L113.442 32.5359C113.638 32.6949 113.901 32.9395 114.213 33.2819C114.531 33.6305 114.824 34.0218 115.106 34.4621ZM109.254 38.3634C109.565 38.8526 109.828 39.2134 110.042 39.4335L111.804 38.3145C111.773 38.2105 111.718 38.0638 111.638 37.8803C111.559 37.6969 111.455 37.5012 111.327 37.2994C111.216 37.1221 111.088 36.957 110.947 36.7919C110.807 36.6268 110.654 36.4984 110.495 36.3944C110.336 36.2966 110.159 36.2415 109.975 36.2354C109.792 36.2293 109.602 36.2843 109.413 36.4066C109.033 36.6451 108.85 36.9325 108.856 37.2627C108.868 37.599 108.997 37.9598 109.254 38.3634Z" fill="#DF6954"/>
<path d="M111.776 46.1539C111.543 45.6464 111.396 45.2 111.341 44.8148C111.286 44.4357 111.305 44.0993 111.403 43.8058C111.5 43.5184 111.672 43.2616 111.922 43.0476C112.167 42.8274 112.473 42.6318 112.84 42.4606L121.303 38.3942L122.403 39.9596L113.983 44.0076C113.775 44.1055 113.61 44.2094 113.488 44.3072C113.365 44.4051 113.274 44.5213 113.213 44.6558C113.151 44.7842 113.133 44.9371 113.151 45.1083C113.17 45.2795 113.219 45.4813 113.298 45.7198L111.776 46.1539Z" fill="#DF6954"/>
<path d="M118.118 50.5141C118.937 50.2756 119.5 50.0004 119.806 49.6886C120.111 49.3767 120.179 48.9426 120.02 48.3861C119.965 48.1843 119.885 47.9703 119.781 47.7379C119.683 47.5056 119.604 47.3343 119.549 47.2182L113.232 49.0587L112.7 47.2487L120.277 45.0413C120.478 45.3592 120.705 45.7934 120.961 46.3315C121.218 46.8696 121.432 47.4505 121.616 48.0804C121.775 48.6185 121.83 49.0832 121.793 49.4684C121.756 49.8537 121.652 50.1961 121.487 50.4896C121.597 50.5752 121.726 50.6914 121.866 50.8321C122.007 50.9727 122.142 51.1439 122.276 51.3274C122.411 51.5169 122.539 51.7187 122.655 51.9389C122.771 52.159 122.869 52.3914 122.937 52.6298C123.114 53.2413 123.175 53.7672 123.114 54.2136C123.053 54.66 122.9 55.0391 122.649 55.3571C122.398 55.6751 122.068 55.938 121.646 56.152C121.224 56.366 120.754 56.5495 120.222 56.7024L115.819 57.9865L115.293 56.1765L119.408 54.978C120.228 54.7395 120.79 54.4643 121.096 54.1586C121.402 53.8528 121.475 53.4125 121.304 52.8439C121.218 52.5565 121.09 52.2935 120.919 52.0612C120.747 51.8288 120.601 51.6637 120.472 51.5597C120.246 51.7126 119.995 51.8471 119.726 51.9572C119.457 52.0673 119.158 52.1712 118.84 52.2629L114.51 53.5226L113.984 51.7126L118.118 50.5141Z" fill="#DF6954"/>
<path d="M119.909 59.0075C120.624 58.9525 121.26 59.0014 121.817 59.1726C122.373 59.3377 122.844 59.5884 123.229 59.9125C123.614 60.2366 123.92 60.6157 124.134 61.056C124.354 61.4962 124.483 61.9549 124.519 62.4318C124.611 63.5509 124.336 64.4497 123.694 65.1346C123.052 65.8195 122.037 66.217 120.661 66.327C120.557 66.3331 120.441 66.3454 120.312 66.3454C120.184 66.3515 120.068 66.3515 119.958 66.3515L119.517 60.9887C118.869 61.0927 118.38 61.3678 118.056 61.802C117.732 62.2423 117.603 62.8476 117.665 63.6242C117.701 64.0829 117.775 64.4926 117.891 64.8656C118.007 65.2386 118.117 65.526 118.227 65.74L116.711 66.113C116.65 66.0152 116.582 65.8745 116.509 65.6972C116.436 65.5199 116.368 65.3181 116.301 65.0857C116.234 64.8595 116.179 64.6087 116.124 64.3397C116.069 64.0706 116.032 63.8016 116.007 63.5203C115.946 62.8048 116.007 62.175 116.173 61.6308C116.344 61.0865 116.601 60.6279 116.949 60.2549C117.298 59.8819 117.726 59.5945 118.227 59.3866C118.741 59.1848 119.297 59.0564 119.909 59.0075ZM121.193 64.3947C121.45 64.3764 121.694 64.3152 121.921 64.2235C122.147 64.1318 122.343 64.0095 122.502 63.8566C122.661 63.7037 122.783 63.5203 122.862 63.3124C122.942 63.1045 122.972 62.8599 122.948 62.5786C122.923 62.2912 122.85 62.0405 122.722 61.8326C122.593 61.6247 122.44 61.4534 122.251 61.3128C122.061 61.1783 121.847 61.0743 121.615 61.0132C121.383 60.9459 121.144 60.9092 120.899 60.897L121.193 64.3947Z" fill="#DF6954"/>
<path d="M65.1626 123.789C50.1688 124.064 36.4041 118.616 25.9476 109.462L38.0551 97.3542C39.3148 99.0174 40.6662 100.448 41.9626 101.537C40.495 72.6133 51.8748 65.6362 55.8618 64.0218C55.874 64.034 55.8801 64.0402 55.8923 64.0463C56.938 65.0063 57.6779 66.0397 58.4606 67.5562C58.8825 67.0303 59.2861 66.4984 59.6591 65.9358C59.8548 65.6484 60.0383 65.3059 60.2339 64.9696C59.5429 64.0646 58.9804 63.4287 58.216 62.5787C59.4696 62.4564 62.0929 62.4319 65.6089 62.7988L45.6927 82.6906C45.6927 82.6906 45.3808 84.1032 45.1056 86.5002C44.8305 88.8973 44.751 90.585 44.751 90.585L61.7199 73.6406C63.0468 73.5611 64.3921 73.6039 65.6823 73.8179C65.2298 72.9007 64.7528 72.0018 64.2514 71.109L71.6505 63.7161C78.9211 65.1653 88.0323 68.1922 96.6605 74.2765C91.5973 62.6215 84.7425 58.2371 78.0467 57.3199L83.1159 52.2567C89.7078 51.847 94.8749 52.3546 94.8749 52.3546C94.8749 52.3546 92.9915 49.7557 87.2252 48.1536L95.2235 40.1675C100.17 45.4264 103.894 51.8103 105.973 58.8669C101.565 39.4215 84.5101 24.6112 63.6461 23.908C53.5014 23.5656 44.0294 26.6169 36.3185 32.0408C43.8765 27.5036 52.8104 25.0148 62.313 25.3328C73.5828 25.7119 83.7825 29.974 91.6646 36.7677L81.3059 47.1141C79.8383 46.9796 78.224 46.9123 76.4568 46.9306C63.5238 47.0652 58.6807 56.7573 57.6229 62.0039C57.5495 61.9489 57.47 61.8999 57.3966 61.8571C57.0603 38.223 83.2749 36.1684 83.2749 36.1684C83.2749 36.1684 72.7022 32.1448 60.4724 38.9568C49.7469 44.925 52.1622 56.8979 56.1431 61.582C55.9535 61.6003 55.7823 61.6492 55.6294 61.7226C50.4745 54.6415 39.2414 35.3062 17.8637 52.324C40.495 47.6705 49.6551 59.5335 55.0363 62.383C55.0057 62.487 54.9935 62.597 54.9996 62.7071C46.0229 59.882 22.2603 48.9241 18.3345 76.166C29.5982 60.4507 49.6368 62.9945 55.1035 63.1229C55.1891 63.3186 55.3298 63.5265 55.5377 63.7344C52.5781 63.9912 44.7082 65.3916 36.985 72.8945C30.8946 78.8138 32.032 86.7387 35.3462 93.0799L22.3826 106.043C12.5988 95.8866 6.47161 82.1525 6.19033 66.9386C6.11083 62.6337 6.52053 58.4328 7.33382 54.3786C6.00688 59.4173 5.32813 64.7189 5.42596 70.1856C6.013 102.093 32.356 127.488 64.2637 126.901C90.3315 126.424 112.039 108.752 118.796 84.8981C111.067 107.169 90.0992 123.33 65.1626 123.789ZM75.2155 53.2107L70.8922 57.5278C65.6456 58.445 60.9922 60.787 58.0387 62.383C58.0142 62.3586 57.9836 62.3341 57.9592 62.3035C61.4753 57.0753 68.3423 54.4703 75.2155 53.2107Z" fill="#DF6954"/>
<path d="M73.92 110.367C73.9873 109.352 73.8894 104.845 73.0028 98.7301C72.0733 98.9869 71.1744 99.3355 70.2511 99.6168C68.7468 100.081 67.2425 100.522 65.7811 101.103C64.2951 101.69 62.8704 102.362 61.5006 103.114C61.3294 104.123 61.1337 105.084 60.9258 106.001C63.3901 106.398 65.7016 107.334 68.0252 108.165C70.0309 108.881 71.9938 109.621 73.8955 110.52C73.9078 110.471 73.92 110.422 73.92 110.367Z" fill="#DF6954"/>
<path d="M61.188 75.3651C61.7812 78.0924 62.1725 81.0642 62.3804 84.1217C63.9214 82.1649 65.7497 80.4466 68.0734 79.3215C67.6209 78.1352 67.1317 76.9611 66.6058 75.7931C64.9181 75.3162 63.0042 75.2 61.188 75.3651Z" fill="#DF6954"/>
<path d="M60.5081 107.658C60.2145 108.722 59.8966 109.7 59.5541 110.581C58.2333 113.534 68.3902 113.369 72.3711 111.73C70.7261 110.996 69.0384 110.367 67.314 109.743C65.0943 108.936 62.8745 108.025 60.5081 107.658Z" fill="#DF6954"/>
<path d="M65.3468 92.3765C64.4112 92.2237 63.4756 92.1319 62.54 92.0769C62.4605 95.1588 62.2159 98.1735 61.8307 100.962C62.9619 100.393 64.1238 99.8795 65.3223 99.4332C66.8938 98.84 68.5204 98.3997 70.1103 97.8616C70.9725 97.5742 71.8408 97.2562 72.7336 97.0239C72.5991 96.2167 72.4584 95.3912 72.2994 94.5412C71.6329 94.3027 70.948 94.0948 70.3304 93.8441C68.7405 93.1837 67.0773 92.6578 65.3468 92.3765Z" fill="#DF6954"/>
<path d="M62.5287 87.0325C62.5654 88.1393 62.5776 89.246 62.5715 90.3528C63.7027 90.414 64.8279 90.5363 65.9408 90.7564C67.8487 91.1233 69.6526 91.6798 71.4137 92.4258C71.5788 92.4992 71.7561 92.5664 71.9273 92.6276C71.1568 88.922 70.1051 84.9289 68.6742 80.9359C66.0142 82.2995 64.0941 84.6171 62.5287 87.0325Z" fill="#DF6954"/>
</svg>
