<svg width="90" height="90" viewBox="0 0 90 90" fill="none" xmlns="http://www.w3.org/2000/svg">
<path fill-rule="evenodd" clip-rule="evenodd" d="M77.6904 27.7184V12.1458C77.6904 11.4401 77.0986 10.8701 76.3663 10.8701H57.0763L44.9699 0.975342L32.8786 10.8701H13.6268C12.8959 10.8701 12.3027 11.4401 12.3027 12.1458V27.7066L0.0272217 37.7527V80.9566C0.0272217 85.668 4.00495 89.5001 8.89631 89.5001H81.0449C85.9349 89.5001 89.9113 85.668 89.914 80.9593L89.9686 37.7527L77.6904 27.7184ZM84.619 80.9566C84.619 81.8658 84.2345 82.6823 83.6331 83.2993L58.2409 62.5458L84.6695 40.9458L84.619 80.9566ZM5.32359 80.9566V40.9432L31.7549 62.5458L6.32722 83.3266C5.71222 82.7071 5.32359 81.8775 5.32359 80.9566ZM44.9972 55.0666L80.8881 84.3975H9.10631L44.9972 55.0666ZM83.134 38.8575L77.6904 43.3066V34.4097L83.134 38.8575ZM44.9727 7.66795L48.8904 10.8701H41.059L44.9727 7.66795ZM75.0422 13.4214V45.4706L56.1954 60.8749L45.8536 52.4227C45.3599 52.0197 44.6359 52.0197 44.1422 52.4227L33.799 60.8749L14.9509 45.4706V13.4214H75.0422ZM12.3027 43.3066L6.85904 38.8575L12.3027 34.4019V43.3066Z" fill="white"/>
</svg>
