<svg width="24" height="24" viewBox="0 0 24 24" fill="none" xmlns="http://www.w3.org/2000/svg">
<path fill-rule="evenodd" clip-rule="evenodd" d="M9.31193 0.75C4.17687 0.75 0 4.80387 0 9.78841C0 14.7717 4.17687 18.8096 9.31193 18.8096C11.5365 18.8096 13.5668 18.0636 15.1675 16.8067C15.2318 16.9298 15.295 17.0553 15.4076 17.1649L21.2161 22.7859C21.5194 23.0949 21.9515 23.25 22.3674 23.25C22.7834 23.25 23.1981 23.0949 23.52 22.7859C24.16 22.163 24.16 21.1547 23.52 20.5318L17.7288 14.9133C17.5666 14.7569 17.3921 14.6474 17.1829 14.5698C18.0952 13.1726 18.6065 11.5414 18.6065 9.78841C18.6065 4.80387 14.4482 0.75 9.31193 0.75ZM9.31193 3.52972C12.8636 3.52972 15.7431 6.34022 15.7431 9.78841C15.7431 10.9518 15.4076 12.0856 14.7676 13.095L14.1759 13.9949L13.3601 14.6326C12.1914 15.5497 10.8 16.0311 9.31193 16.0311C5.76022 16.0311 2.8634 13.2341 2.8634 9.78841C2.8634 6.34022 5.76022 3.52972 9.31193 3.52972Z" fill="white"/>
</svg>
