<svg width="16" height="12" viewBox="0 0 16 12" fill="none" xmlns="http://www.w3.org/2000/svg">
<path id="Vector" d="M15.6446 2.3439C15.4628 1.64968 15.0992 1.12902 14.5537 0.947205C13.2727 0.600098 8.36363 0.600098 8.36363 0.600098C8.36363 0.600098 8.22313 0.600098 7.99999 0.600098C7.77685 0.600098 7.63636 0.600098 7.63636 0.600098C7.63636 0.600098 2.72727 0.600098 1.45454 0.947205C0.90909 1.12076 0.545454 1.64968 0.363636 2.3439C0 3.55877 0 5.99679 0 5.99679C0 5.99679 0 6.23646 0.00826445 6.60009C0.0330578 7.40174 0.107438 8.81497 0.363636 9.65794C0.545454 10.3522 1.09091 10.8728 1.81818 11.0546C1.90082 11.0794 1.99173 11.096 2.09917 11.1125C3.68595 11.4017 7.99999 11.4017 7.99999 11.4017C7.99999 11.4017 12.314 11.4017 13.9008 11.1125C14.0083 11.096 14.0992 11.0712 14.1818 11.0546C14.9091 10.8811 15.4545 10.3604 15.6363 9.65794C15.8843 8.82323 15.9669 7.40174 15.9917 6.60009C16 6.23646 16 5.99679 16 5.99679C16 5.99679 16.0082 3.55877 15.6446 2.3439ZM6.18181 8.26125V3.73233L10.3636 5.99679L6.18181 8.26125Z" fill="#06255B"/>
</svg>
